<?xml version="1.0" standalone="no"?>
<!DOCTYPE svg PUBLIC "-//W3C//DTD SVG 1.1//EN" "http://www.w3.org/Graphics/SVG/1.1/DTD/svg11.dtd" >
<svg xmlns="http://www.w3.org/2000/svg" xmlns:xlink="http://www.w3.org/1999/xlink" version="1.1">
<metadata>
Created by FontForge 20201107 at Fri Jan  1 02:30:17 1904
 By 
Converted by ALLTYPE
</metadata>
<defs>
<font id="Bauhaus-Thin" horiz-adv-x="0" >
  <font-face 
    font-family="Bauhaus-Thin"
    font-weight="5"
    font-stretch="normal"
    units-per-em="1000"
    panose-1="0 0 0 0 0 0 0 0 0 0"
    ascent="800"
    descent="-200"
    x-height="433"
    cap-height="632"
    bbox="-77 -210 787 711"
    underline-thickness="50"
    underline-position="-105"
    unicode-range="U+0020-F002"
  />
<missing-glyph 
 />
    <glyph glyph-name=".notdef" 
 />
    <glyph glyph-name="glyph1" 
 />
    <glyph glyph-name="glyph2" horiz-adv-x="454" 
 />
    <glyph glyph-name="space" unicode=" " horiz-adv-x="454" 
 />
    <glyph glyph-name="space" unicode="&#xa0;" horiz-adv-x="454" 
 />
    <glyph glyph-name="exclam" unicode="!" horiz-adv-x="203" 
d="M30 44q0 25 17.5 40t38.5 15h2h2q20 -1 37.5 -13.5t22.5 -42.5q0 -29 -18.5 -43t-41.5 -14q-22 0 -41 14t-19 43v1zM51 143v489h78v-489h-78v0z" />
    <glyph glyph-name="quotedbl" unicode="&#x22;" horiz-adv-x="305" 
d="M39 384v248h77v-248h-77v0zM165 384v248h80v-248h-80v0z" />
    <glyph glyph-name="numbersign" unicode="#" horiz-adv-x="506" 
d="M25 192v58h98l14 134h-91v56h98l21 192h66l-23 -192h107l21 192h64l-21 -192h86v-56h-94l-14 -134h85v-58h-92l-21 -190h-63l21 190h-107l-29 -190h-63l28 190h-91v0zM187 250h107l14 134h-107l-14 -134v0z" />
    <glyph glyph-name="dollar" unicode="$" horiz-adv-x="506" 
d="M74 93v78h141v171q-3 1 -7 3l-8 4q-8 5 -17.5 10t-19.5 11q-36 20 -66 51.5t-30 89.5q0 54 30 80t66 37q14 4 27 6.5t25 3.5v73h72v-72h120v-77h-120v-164q14 -9 27 -16.5t25 -14.5q43 -26 69.5 -57.5t26.5 -90.5q0 -9 -1 -18.5t-4 -19.5q-9 -34 -38.5 -62t-90.5 -28h-3
t-4 1h-4h-3v-97h-72v98h-141v0zM287 171q2 -1 3.5 -1t3.5 -1h0.5h0.5q3 0 5 -0.5t3 -0.5q23 0 34.5 10.5t12.5 23.5v1.5v1.5q0 23 -15.5 48.5t-47.5 51.5v-134v0zM215 433v129q-20 -6 -32 -11t-22 -10l-1.5 -1.5t-1.5 -0.5l-2 -4l-2 -4v-0.5v-0.5l-4 -8t-2 -7q0 -1 0.5 -3
t1.5 -4v-0.5v-0.5q0 -1 0.5 -1.5t0.5 -1.5v-4.5t1 -4.5q3 -19 19 -36.5t44 -26.5v1z" />
    <glyph glyph-name="percent" unicode="%" horiz-adv-x="809" 
d="M141 -5l398 658h63l-398 -658h-63v0zM424 143q0 64 37 106t106 42q57 0 89 -29.5t44 -65.5q5 -14 7.5 -28t2.5 -26q0 -66 -42 -105t-93 -42h-4h-4q-58 0 -90 29.5t-44 65.5q-5 14 -7 27t-2 25v1zM496 143q0 -33 15 -48.5t32 -20.5q6 -1 12.5 -2t11.5 -1q32 0 51 17t19 54
t-19 57t-51 20q-31 0 -48.5 -19.5t-21.5 -42.5q0 -4 -0.5 -7.5t-0.5 -7.5v1zM35 498q0 68 40 107.5t108 39.5q65 0 104 -36t39 -105q0 -70 -42 -109.5t-101 -39.5q-5 0 -10 0.5t-10 0.5q-48 6 -88 39.5t-40 101.5v1zM113 505q0 -38 22 -59t48 -21h2.5h2.5q25 2 46 20t21 59
q0 32 -19 49.5t-41 20.5q-3 1 -5.5 1h-4.5h-2.5h-2.5q-25 -2 -46 -20t-21 -51v1z" />
    <glyph glyph-name="ampersand" unicode="&#x26;" horiz-adv-x="605" 
d="M123 456q-18 22 -28.5 41.5t-12.5 38.5q-1 3 -1 5.5v5.5q0 32 24 58t82 26l248 1v-84h-248q-9 -1 -13.5 -4t-6.5 -6v-0.5v-1.5q0 -4 4 -10.5t9 -14.5l278 -347q5 15 9.5 35.5t4.5 42.5q0 10 -1.5 20t-4.5 20q-8 28 -24 55t-35 46l65 57q30 -27 54 -67.5t33 -84.5
q2 -10 3 -19.5t1 -19.5q0 -28 -3.5 -50t-11.5 -43q-6 -15 -14.5 -30.5t-19.5 -33.5l78 -90h-113l-28 35q-4 -4 -9 -7.5t-10 -6.5q-21 -14 -53.5 -24.5t-91.5 -10.5q-22 0 -51.5 5t-59.5 16q-58 23 -106.5 77.5t-51.5 155.5q0 60 22 106.5t49 75.5q9 10 17.5 17.5t16.5 13.5
v1zM400 107l-220 277q-29 -17 -45.5 -45t-22.5 -57q-2 -9 -2.5 -17t-0.5 -16q0 -70 49 -124t129 -54q27 0 46.5 3.5t37.5 12.5q7 4 14.5 8.5t14.5 10.5v1z" />
    <glyph glyph-name="quotesingle" unicode="'" horiz-adv-x="203" 
d="M44 447l28 185h78l-43 -185h-63v0z" />
    <glyph glyph-name="parenleft" unicode="(" horiz-adv-x="344" 
d="M51 250q4 118 42 197.5t83 129.5q18 19 35 34t32 27l42 -41q-11 -15 -32.5 -34t-45.5 -50q-30 -40 -56.5 -106t-29.5 -172q0 -112 50 -208t114 -138l-35 -56q-51 38 -85.5 80t-56.5 84q-37 69 -47 135.5t-10 116.5v1z" />
    <glyph glyph-name="parenright" unicode=")" horiz-adv-x="344" 
d="M199 236q0 124 -44.5 210t-97.5 129q-5 4 -10 7.5t-10 6.5l35 57q5 -4 10.5 -7.5t10.5 -7.5q69 -53 127 -156t58 -240q0 -19 -1.5 -38.5t-4.5 -39.5q-14 -95 -62 -182t-131 -135l-35 49q83 64 119 147t36 171v29v0z" />
    <glyph glyph-name="asterisk" unicode="*" horiz-adv-x="464" 
d="M173 456l-120 56l35 64l113 -85l-14 141h72l-14 -141l112 85l36 -64l-120 -56l120 -65l-36 -56l-105 70l7 -127h-72l7 127l-106 -70l-35 56l120 65v0z" />
    <glyph glyph-name="plus" unicode="+" horiz-adv-x="545" 
d="M37 178v79h176v176h79v-176h171v-79h-171v-176h-79v176h-176v0z" />
    <glyph glyph-name="comma" unicode="," horiz-adv-x="242" 
d="M49 -90l36 183h91l-56 -183h-71v0z" />
    <glyph glyph-name="hyphen" unicode="-" horiz-adv-x="242" 
d="M14 185v72h206v-72h-206v0z" />
    <glyph glyph-name="period" unicode="." horiz-adv-x="242" 
d="M63 51q0 25 14.5 36.5t35.5 11.5l10 1q17 -1 31.5 -14t14.5 -36q0 -29 -16.5 -43t-36.5 -14h-1.5h-1.5q-19 1 -34.5 15t-15.5 42v1z" />
    <glyph glyph-name="slash" unicode="/" horiz-adv-x="242" 
d="M-21 -5l190 658h79l-192 -658h-77v0z" />
    <glyph glyph-name="zero" unicode="0" horiz-adv-x="506" 
d="M25 213v206q0 101 64.5 163.5t155.5 62.5q77 0 125.5 -38t72.5 -84q11 -22 16.5 -43.5t5.5 -38.5v-242q0 -15 -2 -29.5t-7 -29.5q-17 -57 -68.5 -104.5t-135.5 -47.5q-98 0 -149 48t-68 106q-5 18 -7.5 36t-2.5 34v1zM371 220v206q0 74 -39.5 104.5t-86.5 30.5
q-76 0 -102.5 -46t-26.5 -111v-175q0 -82 34.5 -116.5t94.5 -34.5q49 0 87.5 29.5t38.5 95.5v17v0z" />
    <glyph glyph-name="one" unicode="1" horiz-adv-x="506" 
d="M88 555l21 77h178v-630h-86v553h-113v0z" />
    <glyph glyph-name="two" unicode="2" horiz-adv-x="506" 
d="M25 440q0 80 60 142.5t167 62.5q95 0 142.5 -45.5t62.5 -100.5q4 -15 6 -30.5t2 -29.5q0 -22 -3 -42t-12 -39q-14 -31 -45 -63.5t-90 -75.5l-178 -133h321v-84h-342q-1 -1 -2.5 -1.5t-3.5 -0.5v0v0h-3.5h-2.5q-37 0 -61.5 20t-24.5 48q0 6 2 13t5 14q4 9 11 17.5t17 15.5
l241 192q32 21 54.5 52.5t22.5 73.5q0 44 -32.5 79.5t-100.5 35.5q-55 0 -85.5 -33.5t-35.5 -73.5q-1 -4 -1 -7.5v-7.5q0 -44 21.5 -69.5t47.5 -39.5q15 -8 29 -12t24 -6l-80 -62q-73 36 -103 78.5t-30 110.5v1z" />
    <glyph glyph-name="three" unicode="3" horiz-adv-x="506" 
d="M46 548v84h269q59 -1 79 -23t20 -48q0 -27 -18.5 -49t-45.5 -43l-98 -85q77 -1 138 -46t61 -135v-11q0 -91 -53 -141t-132 -50l-234 1v77h206q0 -1 1 -1.5t2 -0.5h0.5h0.5q1 -1 1.5 -1h1.5q55 0 85.5 33.5t33.5 73.5v4v4v2.5v3.5q-2 40 -34.5 74t-98.5 34l-115 1v64
l199 178h-269v0z" />
    <glyph glyph-name="four" unicode="4" horiz-adv-x="506" 
d="M280 220v278l91 148v-426h94v-77h-94v-141h-91v141h-192q-2 -1 -4 -1.5t-4 -0.5h-1v0q-3 0 -5 -0.5t-4 -0.5q-34 0 -52.5 14.5t-18.5 39.5q0 7 1 15t4 16q1 5 3 9l4 8l220 390h98l-234 -412h185v0z" />
    <glyph glyph-name="five" unicode="5" horiz-adv-x="506" 
d="M67 306v326h333v-84h-249v-164h101q79 -6 140 -43t66 -150q0 -80 -50.5 -135.5t-111.5 -55.5h-2h-2q-2 0 -3 0.5t-2 0.5l-248 1v77h206q1 -1 2.5 -1.5t3.5 -0.5t3.5 -0.5t2.5 -0.5q48 0 71.5 24.5t30.5 53.5q3 9 4 18.5t1 18.5q-5 54 -32 81.5t-101 32.5l-164 1v0z" />
    <glyph glyph-name="six" unicode="6" horiz-adv-x="506" 
d="M11 220q4 48 14.5 77.5t26.5 54.5l14 22t15 23l164 235h105l-170 -241q-20 -33 -37 -58t-28 -49q-10 -20 -15 -40.5t-5 -45.5v-1.5v-1.5q1 -46 40 -85t103 -39q58 0 99.5 39t41.5 102q0 75 -44 116t-117 41l-17 1l58 77q104 -6 158.5 -74t56.5 -148v-2.5v-3.5
q0 -82 -56.5 -150.5t-172.5 -73.5q-107 0 -170.5 64.5t-63.5 159.5v1z" />
    <glyph glyph-name="seven" unicode="7" horiz-adv-x="506" 
d="M25 548v84h318q43 -1 72 -16t29 -50q0 -12 -4 -27.5t-12 -34.5l-220 -502h-106l241 546h-318v0z" />
    <glyph glyph-name="eight" unicode="8" horiz-adv-x="506" 
d="M116 356q-31 20 -43.5 48.5t-12.5 71.5q0 10 1.5 20t4.5 20q12 46 57 84t129 38q75 0 125.5 -46.5t50.5 -111.5v-10q0 -44 -17.5 -71.5t-39.5 -43.5q19 -12 33.5 -23.5t24.5 -23.5q27 -28 35 -58.5t8 -72.5q0 -79 -63 -134t-164 -55q-97 0 -145.5 37.5t-67.5 83.5
q-7 20 -10.5 39.5t-3.5 35.5q0 52 23.5 90.5t66.5 74.5q2 1 4 2.5t4 3.5v1zM109 192q0 -54 33 -87.5t103 -33.5q58 0 96 27.5t38 85.5q0 54 -29.5 81t-65.5 36q-10 2 -20 3t-19 1q-70 0 -103 -35t-33 -79v1zM151 470q0 -6 1 -12l2 -12q7 -23 29.5 -43t61.5 -20q53 5 72 32.5
t19 60.5q0 4 -0.5 8.5t-1.5 8.5q-4 23 -24.5 42t-64.5 19q-38 0 -66 -19t-28 -66v1z" />
    <glyph glyph-name="nine" unicode="9" horiz-adv-x="506" 
d="M11 405q0 15 2.5 33t7.5 36q18 59 71.5 108t159.5 49q95 0 157.5 -62t62.5 -158q0 -21 -2.5 -38.5t-7.5 -34.5q-7 -21 -20.5 -44t-34.5 -52l-169 -240h-108l199 276q4 3 7 7l6 8q23 33 30 65t7 60q0 54 -38 95t-96 41q-60 0 -102.5 -35.5t-47.5 -121.5q0 -59 49 -101
t113 -42q2 0 4 0.5t4 0.5t4.5 0.5t3.5 0.5l-49 -71q-93 6 -138.5 48t-61.5 90q-7 22 -10 42.5t-3 38.5v1z" />
    <glyph glyph-name="colon" unicode=":" horiz-adv-x="242" 
d="M63 44q0 25 14.5 36.5t35.5 11.5l10 1q17 -1 31.5 -14t14.5 -36q0 -29 -16.5 -43t-36.5 -14h-1.5h-1.5q-19 1 -34.5 15t-15.5 42v1zM56 306q0 26 14 37.5t36 11.5l10 1q17 -1 31.5 -14.5t14.5 -36.5q0 -28 -16.5 -43t-36.5 -15h-1.5h-1.5q-19 1 -34.5 16t-15.5 42v1z" />
    <glyph glyph-name="semicolon" unicode=";" horiz-adv-x="242" 
d="M42 -90l35 183h92l-56 -183h-71v0zM56 306q0 26 14 37.5t36 11.5l10 1q17 -1 31.5 -14.5t14.5 -36.5q0 -28 -16.5 -43t-36.5 -15h-1.5h-1.5q-19 1 -34.5 16t-15.5 42v1z" />
    <glyph glyph-name="less" unicode="&#x3c;" horiz-adv-x="545" 
d="M44 178v72l433 190v-77l-341 -150l341 -148v-70l-433 183v0z" />
    <glyph glyph-name="equal" unicode="=" horiz-adv-x="545" 
d="M44 93v71h440v-71h-440v0zM44 264v71h440v-71h-440v0z" />
    <glyph glyph-name="greater" unicode="&#x3e;" horiz-adv-x="545" 
d="M391 220l-340 150v77l433 -190v-72l-433 -190v77l340 148v0z" />
    <glyph glyph-name="question" unicode="?" horiz-adv-x="404" 
d="M130 51q0 25 17.5 36.5t39.5 11.5l10 1q3 -1 5.5 -1.5t5.5 -0.5q16 -4 30 -16.5t14 -31.5q0 -27 -16.5 -41t-36.5 -16h-2.5h-2.5h-3h-3q-20 2 -37.5 16t-20.5 41v1zM151 150v199q13 -1 27.5 -0.5t29.5 2.5q35 5 65.5 26t34.5 78q0 7 -1 14.5t-3 14.5q-8 31 -33.5 57.5
t-69.5 26.5q-49 0 -69 -33.5t-23 -73.5v-7.5v-7.5l-91 1q0 85 50 141.5t140 56.5q91 0 138 -57t47 -126q0 -80 -47 -130t-115 -55v-127h-80v0z" />
    <glyph glyph-name="at" unicode="@" horiz-adv-x="728" 
d="M37 313q0 1 -0.5 2.5t-0.5 3.5q0 1 -0.5 3t-0.5 3q0 9 0.5 18t1.5 18q13 106 97 195t222 89q121 0 187.5 -50.5t93.5 -110.5q12 -27 17.5 -53t5.5 -48q0 -51 -10.5 -87.5t-33.5 -70.5q-6 -8 -12.5 -16.5t-13.5 -17.5q-28 -28 -59.5 -46.5t-70.5 -18.5h-4t-5 1h-0.5h-0.5
q-3 0 -5.5 0.5t-4.5 0.5q-21 0 -30 11t-11 25q-1 3 -1 6.5v6.5q-16 -21 -41.5 -35t-57.5 -14h-4h-4q-49 3 -89 36.5t-40 98.5v3t1 3v1v0q0 2 0.5 4t0.5 3q1 14 3.5 28t5.5 29q17 64 62.5 117t127.5 53q32 0 56.5 -16.5t37.5 -37.5q2 -2 3.5 -5t2.5 -6l14 52h63l-70 -262
q0 -21 6.5 -31.5t16.5 -10.5q9 0 21 7t24 20q23 23 42.5 63.5t23.5 91.5v11q0 14 -3 30t-10 32q-21 54 -78 99t-150 48q-22 0 -48 -6t-53 -18q-59 -27 -108.5 -87t-53.5 -159v-2.5v-3.5q-1 0 -1 -0.5v-1.5v-2v-2q0 -96 56.5 -157.5t124.5 -85.5q21 -8 42.5 -12t41.5 -4
q2 0 3.5 0.5t3.5 0.5q1 0 3 0.5t3 0.5q57 0 108.5 24.5t74.5 53.5q3 3 5 6.5t4 7.5l70 1q-3 -5 -5.5 -9t-5.5 -7q-36 -50 -94 -91t-171 -41q-127 0 -202.5 63.5t-105.5 139.5q-10 26 -15 51.5t-5 48.5v3t1 3v1v0q0 2 0.5 4t0.5 3v1zM433 349v12q0 31 -21 51t-49 20
q-48 0 -84 -48t-36 -107q0 -43 22 -64.5t48 -21.5q4 0 7.5 0.5t7.5 1.5q33 8 62 44.5t39 78.5q2 8 3 16t1 16v1z" />
    <glyph glyph-name="A" unicode="A" horiz-adv-x="506" 
d="M32 2v417q0 96 55.5 161t157.5 65q96 0 158 -64.5t62 -174.5v-404h-86v290h-235v85h235v23q0 83 -34.5 125.5t-92.5 42.5t-87 -28t-40 -62q-5 -16 -7 -32t-2 -28v-416h-84v0z" />
    <glyph glyph-name="B" unicode="B" horiz-adv-x="506" 
d="M39 2v438q0 7 0.5 15.5t1.5 16.5q9 62 57 115t147 58q79 0 138 -42t59 -127q0 -58 -13 -83t-38 -44l-6 -4l-6 -4q52 -19 73.5 -54t25.5 -74q0 -5 0.5 -10.5t0.5 -11.5v-13q0 -77 -52 -127.5t-122 -50.5h-2.5h-2.5q-2 0 -3 0.5t-3 0.5l-136 1v84h115q47 -1 83.5 22
t36.5 76q0 59 -38 83t-96 24l-101 1v78h80q62 -1 88.5 24t29.5 56q1 3 1 6v6q0 47 -29.5 76.5t-82.5 29.5q-60 0 -85.5 -33.5t-28.5 -73.5q-1 -4 -1 -7.5v-7.5v-444h-91v0z" />
    <glyph glyph-name="C" unicode="C" horiz-adv-x="464" 
d="M32 320q0 116 72.5 194t159.5 104q20 7 40 10t39 3l92 1v-77h-71q-121 -12 -184 -84t-64 -156v-1v-2q0 -19 5 -46t18 -55q22 -50 74.5 -91.5t150.5 -41.5l71 1v-77h-113q-139 4 -214.5 94t-75.5 223v1z" />
    <glyph glyph-name="D" unicode="D" horiz-adv-x="566" 
d="M55 2v630h199q19 -1 39 -5t40 -11q74 -27 135.5 -99.5t61.5 -184.5v-12q0 -25 -8 -65t-29 -83q-31 -63 -94.5 -115.5t-173.5 -55.5l-51 1v84h51q1 -1 2 -1h3q1 -1 2 -1h2q74 0 119 44.5t65 97.5q10 25 14.5 49t4.5 44v16v7t-1 8q-5 77 -60.5 140.5t-165.5 63.5l-64 1
v-553h-91v0z" />
    <glyph glyph-name="E" unicode="E" horiz-adv-x="464" 
d="M11 313q6 128 62 193t121 92q46 19 88 25t68 8l57 1v-77h-50q-114 -6 -175 -57t-76 -112q-2 -4 -2.5 -8.5t-1.5 -8.5l305 1v-78h-305q0 -18 5 -37.5t15 -39.5q25 -52 76 -95.5t114 -43.5l1.5 0.5t3.5 0.5v0v0q2 0 3 0.5t2 0.5l85 1v-77h-71q-15 -1 -30 0.5t-30 4.5
q-100 19 -182.5 97.5t-82.5 207.5v1z" />
    <glyph glyph-name="F" unicode="F" horiz-adv-x="344" 
d="M16 2v417q0 133 66 172.5t147 39.5l91 1v-77h-84q-59 -1 -97.5 -27t-38.5 -96v-76h220v-78h-220v-276h-84v0z" />
    <glyph glyph-name="G" unicode="G" horiz-adv-x="707" 
d="M19 320q0 126 67.5 199.5t147.5 103.5q31 11 61.5 16.5t56.5 5.5q75 0 136 -27t119 -86l-56 -62q-7 6 -14.5 13t-15.5 14q-32 26 -75.5 48.5t-93.5 22.5q-110 0 -166.5 -62t-70.5 -137q-2 -13 -3 -25.5t-1 -24.5q0 -91 59 -167t182 -81q2 0 3 -0.5t3 -0.5q1 0 2.5 -0.5
t2.5 -0.5q81 0 133.5 48t71.5 106q5 14 7.5 27.5t3.5 26.5l-220 1v85h312v-78q-10 -140 -103 -215t-216 -75q-144 0 -236 90.5t-97 233.5v1z" />
    <glyph glyph-name="H" unicode="H" horiz-adv-x="566" 
d="M55 2v630h84v-255h269v255h87v-630h-87v290h-269v-290h-84v0z" />
    <glyph glyph-name="I" unicode="I" horiz-adv-x="203" 
d="M44 2v630h85v-630h-85v0z" />
    <glyph glyph-name="J" unicode="J" horiz-adv-x="305" 
d="M173 632h86v-419q0 -18 -1.5 -37.5t-6.5 -39.5q-12 -51 -52.5 -93.5t-133.5 -42.5h-2.5h-3.5t-3.5 0.5t-2.5 0.5l-57 1v77h50q63 -1 95 26.5t32 85.5v441v0z" />
    <glyph glyph-name="K" unicode="K" horiz-adv-x="506" 
d="M46 632h91v-269h87q26 -1 50.5 31t40.5 75l71 163h107l-86 -199q-2 -8 -6 -16t-10 -16q-10 -16 -26 -30t-32 -22q-1 0 -2 -0.5t-2 -0.5q59 -16 94 -53.5t35 -117.5v-175h-94v176q0 48 -28 77t-91 29l-108 1v-283h-91v630v0z" />
    <glyph glyph-name="L" unicode="L" horiz-adv-x="344" 
d="M51 632h85v-412q0 -60 24.5 -102t94.5 -42q2 0 3.5 0.5t4.5 0.5h0.5h0.5q2 1 4 1h3l71 1v-77h-99q-16 -1 -36 2t-41 11q-43 16 -79 55t-36 114v448v0z" />
    <glyph glyph-name="M" unicode="M" horiz-adv-x="707" 
d="M-9 2l71 560q2 37 24.5 57.5t49.5 20.5q5 0 9.5 -0.5t9.5 -2.5q19 -5 36.5 -22.5t25.5 -46.5l128 -425l122 419q8 35 26 54t39 24q4 1 8 1.5t8 0.5q26 0 48.5 -19t24.5 -48l73 -573h-94l-56 517l-143 -475q-4 -21 -18 -32.5t-29 -14.5q-3 0 -6 -0.5t-6 -0.5h-3.5h-2.5
q-16 2 -30 12t-17 28l-150 483l-56 -517h-92v0z" />
    <glyph glyph-name="N" unicode="N" horiz-adv-x="566" 
d="M33 2v546q0 39 23.5 61t51.5 24h2.5h2.5q4 0 8.5 -0.5t9.5 -1.5q17 -4 33 -16t24 -33l220 -461v511h87v-588q0 -30 -18.5 -42.5t-41.5 -12.5q-4 0 -8 0.5t-8 0.5q-19 4 -36 13.5t-24 25.5l-234 483v-510h-92v0z" />
    <glyph glyph-name="O" unicode="O" horiz-adv-x="707" 
d="M19 327q0 144 95.5 228t209.5 90h6.5h7.5q23 0 48 -3.5t51 -10.5q85 -24 157.5 -98t76.5 -214q0 -127 -85 -225.5t-234 -98.5q-139 0 -236 83t-97 248v1zM111 327q0 -2 -0.5 -4t-0.5 -4v0v-1q-1 -1 -1 -3v-3q0 -96 66.5 -168.5t169.5 -72.5q20 0 44.5 3.5t50.5 13.5
q52 19 95.5 70t43.5 154v2.5v3.5q-2 94 -58.5 172t-182.5 78q-106 0 -165.5 -74t-61.5 -162v-3.5v-2.5v1z" />
    <glyph glyph-name="P" unicode="P" horiz-adv-x="464" 
d="M32 2v424q0 101 62.5 160t143.5 59q16 0 34.5 -3.5t36.5 -10.5q53 -20 97.5 -68t44.5 -124q0 -82 -40.5 -127.5t-89.5 -60.5q-14 -5 -28 -7t-27 -2l-122 1v77h80q1 -1 2.5 -1h3.5q0 -1 0.5 -1h1.5h2h2q52 0 77 21t35 46q6 15 7.5 29.5t1.5 24.5t-1.5 22t-5.5 24
q-10 29 -35.5 52.5t-76.5 23.5q-81 0 -101.5 -50.5t-20.5 -120.5v-388h-84v0z" />
    <glyph glyph-name="Q" unicode="Q" horiz-adv-x="707" 
d="M317 -125v338h91v-134q76 20 127 83t51 164v2.5v3.5q-2 88 -68 162t-166 74q-105 0 -166 -62t-77 -137q-2 -13 -3.5 -25.5t-1.5 -24.5q0 -85 51 -155t127 -86v-76q-21 2 -45.5 9.5t-49.5 20.5q-64 33 -117.5 102.5t-57.5 184.5q0 135 99.5 227.5t219.5 98.5h6.5h7.5
q21 0 44 -3.5t46 -9.5q87 -25 159.5 -98.5t76.5 -199.5v-19q0 -126 -77 -210t-186 -104v-126h-91v0z" />
    <glyph glyph-name="R" unicode="R" horiz-adv-x="506" 
d="M39 2v396q0 117 53 179.5t160 67.5q75 0 132.5 -51t57.5 -120v-11q0 -44 -16.5 -82t-54.5 -55q38 -16 59 -50t21 -78v-196h-87v183q0 48 -33 70t-86 22l-87 1v78h73q1 -1 3 -1.5t4 -0.5v0h1q1 -1 3 -1h3h7.5t7.5 1q36 5 66.5 32t30.5 76q0 47 -26.5 69t-57.5 28
q-7 1 -14 1.5t-14 0.5q-49 0 -75.5 -23.5t-37.5 -52.5q-5 -12 -7 -24t-2 -22v-437h-84v0z" />
    <glyph glyph-name="S" unicode="S" horiz-adv-x="464" 
d="M11 79h227q42 -1 67.5 16t30.5 54q0 32 -21 59t-63 48q-8 4 -16.5 8t-17.5 8q-1 1 -2.5 1.5t-2.5 1.5q-74 36 -135.5 77.5t-61.5 113.5l0.5 1.5t0.5 3.5v0v0q0 2 0.5 3t0.5 2q0 69 39.5 104t86.5 46q7 2 14.5 3t14.5 2l220 1v-77h-206q-35 -1 -56 -21.5t-26 -45.5
q0 -4 -0.5 -7.5t-0.5 -6.5q0 -14 7 -27.5t19 -21.5q41 -29 77 -47t67 -33q9 -5 17.5 -9.5t16.5 -9.5q7 -4 14.5 -8.5t14.5 -9.5q31 -23 57.5 -58t26.5 -87q0 -13 -1.5 -29t-6.5 -32q-11 -39 -45.5 -70.5t-108.5 -31.5h-3h-3h-1v0q-2 0 -4 0.5t-3 0.5l-234 1v77v0z" />
    <glyph glyph-name="T" unicode="T" horiz-adv-x="404" 
d="M-11 555v77h404v-77h-155v-553h-94v553h-155v0z" />
    <glyph glyph-name="U" unicode="U" horiz-adv-x="506" 
d="M32 632h91v-403q0 -87 36.5 -122.5t85.5 -35.5q57 0 85 36t33 79q0 5 0.5 9.5t0.5 9.5v427h94v-419q0 -112 -64.5 -165t-148.5 -53q-86 0 -149.5 57.5t-63.5 152.5v427v0z" />
    <glyph glyph-name="V" unicode="V" horiz-adv-x="506" 
d="M-32 632h99l185 -525l155 525h100l-185 -581q-1 -5 -3.5 -10.5t-4.5 -10.5q-7 -14 -21.5 -24.5t-40.5 -10.5q-27 0 -41.5 8.5t-26.5 33.5q-2 5 -5 12t-6 15l-205 568v0z" />
    <glyph glyph-name="W" unicode="W" horiz-adv-x="809" 
d="M35 632h92v-403q0 -76 22 -117t92 -41q40 0 63.5 19t33.5 42q5 10 7 20t2 18v462h91v-461q0 -38 20.5 -59.5t45.5 -30.5q13 -5 26.5 -7.5t22.5 -2.5q8 0 16.5 1t17.5 4q27 7 49 30t22 71v455h94v-468q0 -68 -37.5 -105t-82.5 -53q-19 -6 -37.5 -8.5t-34.5 -2.5h-18
q-46 0 -77 16t-49 36q-7 8 -12 16t-8 15q-24 -41 -52 -59.5t-57 -25.5q-15 -3 -30 -4t-30 -1q-75 0 -119 40.5t-61 90.5q-6 17 -9 33.5t-3 31.5v448v0z" />
    <glyph glyph-name="X" unicode="X" horiz-adv-x="506" 
d="M-4 548v84q90 -1 155.5 -50.5t93.5 -135.5q20 81 86 127t141 56q5 1 10.5 1.5t10.5 0.5v-83q-14 -1 -29.5 -3t-30.5 -7q-55 -17 -100.5 -69.5t-45.5 -156.5q0 -89 56.5 -158.5t130.5 -69.5h4.5t5.5 1h4.5h4.5v-83q-2 -1 -4.5 -1.5t-5.5 -0.5h-2h-2h-3h-4q-10 0 -20.5 0.5
t-21.5 3.5q-67 15 -123.5 66.5t-61.5 110.5v1.5v1.5q-15 -75 -83.5 -129.5t-152.5 -54.5h-3h-3q-2 0 -3.5 0.5t-2.5 0.5l-1 85q2 -1 3 -1h3q1 -1 2.5 -1h2.5q10 0 21 1.5t22 5.5q54 16 99 72t45 149q0 85 -43.5 154.5t-153.5 80.5z" />
    <glyph glyph-name="Y" unicode="Y" horiz-adv-x="464" 
d="M11 632h84v-199q0 -38 25.5 -68.5t94.5 -30.5q46 0 72.5 18.5t36.5 40.5q2 7 3.5 13t1.5 12v214h85v-199q0 -79 -47.5 -128t-104.5 -56h-1.5h-1.5v-247h-86v248q-13 1 -31.5 7t-37.5 17q-35 21 -64 60.5t-29 104.5v193v0z" />
    <glyph glyph-name="Z" unicode="Z" horiz-adv-x="464" 
d="M32 555v77h318q41 -1 57.5 -18.5t16.5 -38.5q0 -5 -1 -11t-2 -11q-4 -14 -11 -28t-14 -24q-1 -1 -1.5 -2t-1.5 -2l-298 -418h333v-77h-354q-3 -1 -6.5 -1t-7.5 1q-22 3 -41 17t-19 43q0 17 8 38.5t24 48.5l290 406h-290v0z" />
    <glyph glyph-name="bracketleft" unicode="[" horiz-adv-x="344" 
d="M100 -153v785h157v-42h-79v-701h79v-42h-157v0z" />
    <glyph glyph-name="backslash" unicode="\" horiz-adv-x="242" 
d="M-77 639h77l298 -644h-71l-304 644v0z" />
    <glyph glyph-name="bracketright" unicode="]" horiz-adv-x="344" 
d="M86 -153v42h78v694h-78v49h157v-785h-157v0z" />
    <glyph glyph-name="asciicircum" unicode="^" horiz-adv-x="454" 
 />
    <glyph glyph-name="underscore" unicode="_" horiz-adv-x="464" 
d="M-4 -55h455v-49h-455v49v0z" />
    <glyph glyph-name="grave" unicode="`" horiz-adv-x="203" 
d="M72 440l-42 185h84l29 -185h-71v0z" />
    <glyph glyph-name="a" unicode="a" horiz-adv-x="506" 
d="M386 2v248v0.5v1.5q-1 41 -32.5 75.5t-108.5 34.5q-12 0 -28 -3t-32 -11q-30 -13 -55 -43.5t-28 -85.5q0 -74 42 -108.5t93 -38.5q3 -1 7 -1h8q21 0 38 7t34 19q8 7 16 14.5t17 16.5v-98q-21 -17 -46.5 -26t-72.5 -9h-13q-80 0 -140 61.5t-60 162.5q0 92 57.5 156
t169.5 64q106 0 163 -57t57 -126v-254h-86v0z" />
    <glyph glyph-name="b" unicode="b" horiz-adv-x="506" 
d="M32 625h84v-405q0 -69 35.5 -112.5t100.5 -43.5q58 0 91.5 33.5t43.5 73.5q3 11 4.5 21t1.5 20q0 72 -36 107.5t-79 41.5q-5 0 -9.5 0.5t-9.5 0.5q-28 0 -48.5 -7.5t-39.5 -16.5q-1 0 -2 -0.5t-2 -0.5q-6 -3 -11.5 -5.5t-11.5 -5.5v79q19 11 39 18t40 11q11 1 21 2t20 1
q83 0 149 -56.5t66 -152.5q0 -91 -58 -165.5t-169 -74.5q-112 0 -166 71.5t-54 168.5v397v0z" />
    <glyph glyph-name="c" unicode="c" horiz-adv-x="344" 
d="M30 213q0 16 4 36.5t13 40.5q20 51 68 93t128 42l84 1v-77h-63q-12 -1 -26 -3t-29 -8q-33 -11 -60.5 -40.5t-27.5 -85.5q0 -11 2 -22.5t5 -23.5q11 -34 40 -62t82 -28h3t3 1h1v0q2 0 4 0.5t3 0.5l63 1v-77h-91q-83 3 -128.5 44t-63.5 89q-7 21 -10.5 40.5t-3.5 36.5v1z
" />
    <glyph glyph-name="d" unicode="d" horiz-adv-x="506" 
d="M371 625h87v-417q0 -19 -5.5 -43.5t-16.5 -50.5q-22 -48 -68 -87t-122 -39h-8q-109 5 -159 61t-59 123q-1 8 -1.5 16.5t-0.5 16.5v2t-1 2v1.5v0.5q0 2 -0.5 3.5t-0.5 2.5q0 83 42.5 133.5t94.5 69.5q16 6 31.5 9t30.5 3q59 0 85.5 -8.5t42.5 -19.5v-84q-3 2 -7.5 4.5
t-10.5 5.5q-19 9 -45.5 17t-55.5 8q-4 0 -8.5 -0.5t-8.5 -0.5q-43 -7 -78.5 -44t-35.5 -100q0 -1 0.5 -2.5t0.5 -3.5t0.5 -3.5t0.5 -2.5q7 -61 34.5 -89t58.5 -37q15 -5 30 -6.5t27 -1.5q68 0 97 55t29 130v376v0z" />
    <glyph glyph-name="e" unicode="e" horiz-adv-x="506" 
d="M123 199l213 121q-3 3 -6.5 7t-8.5 9q-10 10 -27 18t-49 8q-70 0 -106.5 -49t-36.5 -108v-1.5v-1.5q1 -52 37 -95t106 -43q73 0 98.5 34.5t41.5 96.5q0 1 0.5 1.5t0.5 1.5l79 -6v-19q0 -15 -3.5 -31t-10.5 -32q-21 -46 -72.5 -84t-133.5 -38q-97 0 -162 61t-65 156
q0 103 55 158t120 70q14 3 26.5 4.5t25.5 1.5q74 0 127 -41t86 -100l-300 -162l-35 63v0z" />
    <glyph glyph-name="f" unicode="f" horiz-adv-x="242" 
d="M42 2v468q0 66 27.5 98.5t59.5 44.5q17 7 33 9t28 2l72 1v-77h-58q-51 -1 -67 -26.5t-18 -55.5q-1 -5 -1 -10v-10v-4t1 -3v-2v-2q0 -3 0.5 -5.5t0.5 -4.5l128 1v-77h-128v-347h-78v0z" />
    <glyph glyph-name="g" unicode="g" horiz-adv-x="506" 
d="M109 -111q23 -7 42.5 -11t38.5 -7q12 -1 23.5 -2t24.5 -1q65 0 106.5 35t41.5 88v208q0 74 -40.5 118.5t-93.5 44.5h-8t-7 -1q-51 -4 -93 -41.5t-42 -121.5q0 -52 40 -93t110 -41q26 0 52.5 7t52.5 28v-83q-21 -16 -48 -22t-64 -6q-118 5 -169 69.5t-51 154.5
q0 93 46 143.5t101 69.5q21 7 41.5 10.5t38.5 3.5q84 0 152 -57t68 -147v-233q0 -12 -5 -41t-23 -62q-21 -41 -69 -75t-137 -34q-51 0 -87 8t-58 18q-1 1 -2.5 1.5t-2.5 1.5l21 70v0z" />
    <glyph glyph-name="h" unicode="h" horiz-adv-x="464" 
d="M39 632h77v-234q26 20 55 34t67 14q68 0 118.5 -39.5t50.5 -108.5v-296h-78v255q0 52 -28 82t-70 30q-50 0 -75.5 -26t-34.5 -57q-3 -9 -4 -18.5t-1 -18.5v-247h-77v630v0z" />
    <glyph glyph-name="i" unicode="i" horiz-adv-x="242" 
d="M77 2v431h78v-431h-78v0zM70 533q0 21 14.5 31.5t35.5 10.5q3 0 6.5 -0.5t6.5 -1.5q14 -3 25 -13.5t11 -27.5q0 -22 -14.5 -34t-31.5 -13h-1.5h-1.5q-19 0 -34.5 12t-15.5 35v1z" />
    <glyph glyph-name="j" unicode="j" horiz-adv-x="203" 
d="M-62 -195v77h46q35 0 50.5 21t20.5 46q2 10 2.5 20t0.5 19v445h78v-488q0 -53 -40.5 -94t-113.5 -46h-44v0zM51 526q0 26 14 37.5t35 11.5q3 0 7 -0.5t7 -1.5q14 -4 25 -15.5t11 -32.5q0 -23 -15.5 -35t-34.5 -12h-1.5h-1.5q-17 1 -31.5 13t-14.5 34v1z" />
    <glyph glyph-name="k" unicode="k" horiz-adv-x="404" 
d="M39 632h77v-354h42q17 -1 30 4t26 18q7 9 15 20.5t16 27.5l49 85h92q-5 -10 -10 -18.5t-10 -17.5l-10 -18l-10 -18q-23 -40 -46 -70.5t-41 -34.5q45 -4 68 -31.5t28 -60.5q1 -5 1.5 -10.5t0.5 -11.5v-140h-77v112q0 37 -19.5 60.5t-73.5 23.5l-71 1v-197h-77v630v0z" />
    <glyph glyph-name="l" unicode="l" horiz-adv-x="203" 
d="M51 632h85v-630h-85v630v0z" />
    <glyph glyph-name="m" unicode="m" horiz-adv-x="664" 
d="M48 2v297q0 58 44 99t118 41q54 0 79.5 -15t41.5 -41q16 21 48 38.5t81 17.5q59 0 106.5 -35.5t47.5 -89.5v-312h-77v285q0 5 -1.5 12t-4.5 14q-9 21 -27.5 38.5t-43.5 17.5q-34 0 -56.5 -23t-28.5 -51q-1 -5 -1.5 -9.5t-0.5 -8.5v-275h-77v269q0 41 -21 69.5t-65 28.5
q-52 -5 -68 -36t-17 -67v-1v-2v-261h-77v0z" />
    <glyph glyph-name="n" unicode="n" horiz-adv-x="464" 
d="M46 2v262q0 73 50.5 127.5t141.5 54.5q14 0 34 -3.5t41 -12.5q38 -16 69.5 -51t31.5 -98v-279h-85v255v0.5v1.5q-1 41 -23.5 75.5t-74.5 34.5q-49 0 -76 -32t-32 -74v-261h-77v0z" />
    <glyph glyph-name="o" unicode="o" horiz-adv-x="506" 
d="M25 229q0 100 67 158.5t153 58.5q10 0 19.5 -0.5t19.5 -2.5q71 -10 129.5 -63t58.5 -161q0 -13 -1.5 -26.5t-5.5 -27.5q-15 -64 -67 -117t-139 -53q-123 0 -178.5 68t-55.5 165v1zM109 229q0 -12 1 -24t4 -24q9 -41 38.5 -75.5t92.5 -34.5q58 0 99.5 33t41.5 124
q0 63 -36.5 102t-104.5 39q-64 0 -95 -34.5t-38 -75.5q-2 -8 -2.5 -15.5t-0.5 -15.5v1z" />
    <glyph glyph-name="p" unicode="p" horiz-adv-x="506" 
d="M32 -188v408q0 97 50 149.5t110 68.5q16 4 31 6t29 2q95 0 145 -45.5t68 -100.5q8 -21 11 -42t3 -39q0 -19 -3 -40t-10 -43q-18 -52 -64.5 -96.5t-135.5 -51.5q-26 0 -56 6.5t-73 27.5v85q26 -14 44 -21.5t34 -10.5q10 -2 20.5 -3t23.5 -1q68 0 101 42.5t33 105.5
q0 69 -43 109t-95 41h-1.5h-1.5q-12 0 -26 -3t-29 -10q-33 -16 -60.5 -52t-27.5 -99v-393h-77v0z" />
    <glyph glyph-name="q" unicode="q" horiz-adv-x="506" 
d="M379 -188v394q0 70 -29.5 107t-65.5 49q-10 4 -20 5.5t-19 1.5q-12 0 -25 -2t-27 -7q-37 -12 -67.5 -45t-30.5 -96q0 -79 44 -113.5t99 -34.5q11 0 25.5 2.5t30.5 8.5q16 5 31 13t25 18v-90q-26 -17 -56.5 -22.5t-62.5 -5.5h-13q-81 0 -129.5 50.5t-63.5 111.5
q-4 14 -5.5 28t-1.5 27q5 113 59 171t161 63l14 1q12 -1 25 -3t26 -5q58 -16 106.5 -69t48.5 -142v-416h-79v0z" />
    <glyph glyph-name="r" unicode="r" horiz-adv-x="242" 
d="M28 433h78v-42q3 4 7.5 9t9.5 10q14 14 36 25t52 11l30 1v-77h-21q-50 -7 -74 -35t-32 -60q-6 -22 -7 -42.5t-1 -34.5v-196h-78v431v0z" />
    <glyph glyph-name="s" unicode="s" horiz-adv-x="404" 
d="M18 79h183q3 -1 6.5 -1.5t7.5 -0.5t7.5 -0.5t6.5 -0.5h2.5h2.5q20 1 36.5 8t16.5 29q0 26 -27.5 40t-71.5 26q-10 3 -21 6t-23 6q-58 16 -92 46t-34 82q0 74 50 93.5t119 19.5l163 1v-70h-170q-32 -1 -55 -8t-23 -29q0 -25 24 -37t53 -20l16 -4t15 -3q6 -2 11 -3t10 -3
q4 -1 8 -2.5t8 -3.5q69 -26 96.5 -56.5t27.5 -80.5q-3 -57 -32.5 -80.5t-64.5 -29.5q-12 -2 -24 -2.5t-23 -0.5h-3h-3h-6h-6q-4 0 -8 0.5t-7 0.5l-176 1v77v0z" />
    <glyph glyph-name="t" unicode="t" horiz-adv-x="305" 
d="M53 143v397h84v-107h164v-77h-164v-220q0 -23 7 -40.5t50 -17.5l100 1v-77h-107q-1 -1 -3 -1.5t-3 -0.5h-3.5h-3.5q-59 0 -87 37.5t-33 83.5q0 5 -0.5 10.5t-0.5 10.5v1z" />
    <glyph glyph-name="u" unicode="u" horiz-adv-x="464" 
d="M39 433h77v-262q0 -49 29.5 -78t78.5 -29q38 0 62 26.5t32 57.5q2 7 3 14.5t1 14.5v256h78v-264q0 -75 -48 -128t-128 -53q-81 0 -133 45t-52 151v249v0z" />
    <glyph glyph-name="v" unicode="v" horiz-adv-x="404" 
d="M-25 433h92l134 -340l121 340h92l-148 -389q-10 -25 -27.5 -38t-36.5 -15h-2.5h-2.5h-2.5h-3.5q-18 2 -34.5 15t-26.5 37l-155 390v0z" />
    <glyph glyph-name="w" unicode="w" horiz-adv-x="664" 
d="M40 433h85v-276q0 -33 16.5 -59.5t53.5 -26.5q44 0 65.5 20.5t21.5 78.5v263h84v-276q0 -54 26.5 -70t59.5 -16q32 0 51.5 25.5t19.5 73.5v263h77v-308q0 -48 -31.5 -82.5t-68.5 -46.5q-10 -4 -20.5 -6t-19.5 -2q-49 0 -79.5 12.5t-56.5 49.5q-3 -3 -6 -7t-6 -7
q-18 -19 -47 -33.5t-70 -14.5q-59 0 -92 28t-48 61q-8 18 -11.5 35t-3.5 30v291v0z" />
    <glyph glyph-name="x" unicode="x" horiz-adv-x="344" 
d="M-5 363v70q53 -1 98 -23.5t71 -75.5q14 34 39.5 53.5t53.5 29.5q24 9 47 12t38 3v-69q-53 -6 -94.5 -40t-41.5 -104q0 -52 22.5 -81t49.5 -43q19 -10 37 -13.5t27 -3.5v-76q-55 -1 -91.5 18t-57.5 41q-10 10 -17 20t-12 18q-26 -52 -71 -75t-97 -23l-1 78
q48 -1 83.5 33.5t46.5 75.5q2 8 3 15.5t1 15.5t-1 16.5t-3 16.5q-10 37 -42 69t-87 41z" />
    <glyph glyph-name="y" unicode="y" horiz-adv-x="464" 
d="M32 433h84v-241v-10.5t1 -9.5q2 -38 23 -69.5t84 -31.5q47 0 69 31.5t22 74.5v256h85v-273v-5v-4q-2 -52 -36.5 -97.5t-104.5 -58.5v-183h-79v183q-58 15 -100.5 50t-47.5 104v284v0z" />
    <glyph glyph-name="z" unicode="z" horiz-adv-x="344" 
d="M30 433h227q38 -1 55 -19.5t17 -41.5q0 -5 -0.5 -9.5t-2.5 -9.5q-3 -13 -10 -25.5t-17 -22.5l-192 -233h228v-70h-263q-24 -1 -42 13.5t-18 36.5q0 7 2 14.5t6 15.5q3 6 7.5 12t9.5 12l199 250h-206v77v0z" />
    <glyph glyph-name="braceleft" unicode="{" horiz-adv-x="344" 
d="M16 206v58q33 -1 49.5 23.5t19.5 53.5q1 3 1 6.5v7.5v164q0 42 24.5 77t67.5 35l72 1v-42h-44q-21 -1 -28 -21t-7 -58v-169q0 -10 -1 -19t-4 -19q-6 -20 -19.5 -39t-39.5 -30q10 -7 18 -13t15 -12q20 -20 25.5 -42t5.5 -55v-168q0 -21 9 -38.5t42 -17.5h35v-49h-53
q-65 0 -86 28.5t-24 63.5q-1 7 -1 14v14v133q0 47 -20 79.5t-57 32.5v1z" />
    <glyph glyph-name="bar" unicode="|" horiz-adv-x="203" 
d="M51 2v630h78v-630h-78v0z" />
    <glyph glyph-name="braceright" unicode="}" horiz-adv-x="344" 
d="M236 236q-38 4 -58.5 33t-20.5 72v185q0 42 -11.5 52.5t-38.5 10.5l-28 1v49h50q53 -1 80 -28t27 -86v-155q0 -38 12.5 -62.5t27.5 -37.5q8 -7 16 -10.5t14 -3.5v-50q-26 -6 -48 -33.5t-22 -80.5v-161q0 -47 -29 -72.5t-93 -25.5h-35v49h35q27 0 35 12t8 44v176
q0 47 20.5 78t58.5 43v1z" />
    <glyph glyph-name="asciitilde" unicode="~" horiz-adv-x="454" 
 />
    <glyph glyph-name="glyph98" unicode="&#xa1;" horiz-adv-x="454" 
 />
    <glyph glyph-name="cent" unicode="&#xa2;" horiz-adv-x="404" 
d="M158 292h80v-199h-25q-8 -1 -17 -1.5t-18 -2.5q-37 -6 -68 -29t-31 -69q0 -1 0.5 -2t0.5 -3v0v0q0 -2 0.5 -3.5l0.5 -1.5q5 -53 34 -76t72 -23q47 0 66 23t24 50q2 10 2.5 20.5t0.5 19.5h91q-3 -81 -36.5 -122.5t-73.5 -57.5q-22 -10 -43.5 -13.5t-37.5 -3.5q-15 0 -34 4
t-38 12q-42 18 -76.5 58t-34.5 109q3 69 31 108t61 58q19 11 37.5 16t31.5 7v122v0zM137 384q0 31 17.5 46.5t39.5 15.5h6t5 -1q21 -3 37.5 -17.5t16.5 -37.5q0 -28 -17.5 -43t-39.5 -17h-2.5h-2.5h-2.5h-3.5q-19 2 -36 15.5t-18 37.5v1z" />
    <glyph glyph-name="sterling" unicode="&#xa3;" horiz-adv-x="464" 
d="M165 206l-112 143h70l115 -143l-122 -134h-70l119 134v0zM322 206l-114 143h72l113 -143l-120 -134h-72l121 134v0z" />
    <glyph glyph-name="Idieresis" unicode="&#xa4;" horiz-adv-x="305" 
d="M39 384v248h77v-248h-77v0zM165 384v248h80v-248h-80v0z" />
    <glyph glyph-name="ae" unicode="&#xa5;" horiz-adv-x="454" 
 />
    <glyph glyph-name="brokenbar" unicode="&#xa6;" 
 />
    <glyph glyph-name="section" unicode="&#xa7;" horiz-adv-x="454" 
 />
    <glyph glyph-name="dieresis" unicode="&#xa8;" 
 />
    <glyph glyph-name="copyright" unicode="&#xa9;" horiz-adv-x="506" 
d="M67 447l-49 51l49 50l49 -50q3 2 6.5 4t6.5 5q22 16 49 24t74 8q18 0 41 -3.5t46 -13.5q10 -5 20 -11t20 -14l56 51l44 -43l-51 -49q23 -29 33.5 -64t10.5 -73q0 -58 -13.5 -86t-30.5 -49l51 -48l-44 -43l-49 50q-1 -2 -2.5 -3t-2.5 -2q-26 -20 -54 -33t-68 -13
q-22 0 -42 2t-40 9q-15 5 -30 12.5t-31 19.5l-49 -49l-49 50l49 49q-5 5 -9 11t-7 11q-20 33 -23 63.5t-3 48.5q0 38 10.5 72t31.5 55v1zM393 320v13q0 57 -41.5 96.5t-106.5 39.5q-54 0 -98.5 -41.5t-44.5 -115.5q0 -64 36 -100.5t79 -45.5l14 -2t14 -1l1.5 -0.5t2.5 -0.5
h0.5h0.5q1 0 2 -0.5t2 -0.5h4h4q49 4 90 46t41 100v13v0z" />
    <glyph glyph-name="ellipsis" unicode="&#xaa;" horiz-adv-x="506" 
d="M18 213q4 97 50 146.5t101 67.5q20 6 39.5 9t36.5 3q46 0 75 -10t55 -29q1 -1 2 -1.5t2 -1.5l42 43h79l-79 -84q4 -5 8 -9t7 -9q14 -18 25 -47t11 -79q0 -17 -5 -44t-20 -56q-21 -44 -68.5 -80.5t-133.5 -36.5q-60 0 -87.5 12.5t-48.5 28.5l-49 -48h-78l85 84
q-17 25 -27 43.5t-15 35.5q-4 13 -5.5 27.5t-1.5 33.5v1zM357 121q11 12 17 32t9 41q0 6 0.5 11.5t0.5 11.5v2.5v2.5q-1 23 -6 44t-14 32l-199 -205q1 -2 2 -3l3 -3q9 -8 29.5 -14.5t43.5 -6.5q9 0 18 1t18 3q22 6 42.5 18t35.5 32v1zM123 136l199 206q-16 15 -36 21t-41 6
q-61 0 -102 -47t-41 -108q0 -9 1.5 -18t3.5 -18q3 -11 7 -22t9 -21v1z" />
    <glyph glyph-name="ydieresis" unicode="&#xab;" horiz-adv-x="566" 
d="M97 2v333h-99l21 77h78v79q0 52 44 92.5t120 40.5q59 0 106.5 -35.5t47.5 -89.5v-8q0 -38 -13 -59t-41 -39q-10 -6 -20.5 -12t-23.5 -12q8 -5 17.5 -9.5t18.5 -8.5q8 -4 16.5 -7.5t16.5 -7.5q49 -23 89.5 -60.5t40.5 -119.5q0 -64 -41.5 -109.5t-122.5 -45.5l-150 1v70
h108q68 -1 94 23t26 61q0 50 -29.5 79.5t-65.5 48.5q-21 11 -40.5 19t-33.5 16q-11 7 -19.5 15t-12.5 16q-2 5 -3 9t-1 8q0 2 0.5 4.5t0.5 5.5q4 12 14.5 23t27.5 18q26 11 48 28.5t22 43.5t-22 41.5t-48 15.5q-60 0 -77 -30.5t-17 -84.5v-430h-77v0z" />
    <glyph glyph-name="emdash" unicode="&#xac;" 
 />
    <glyph glyph-name="uni00AD" unicode="&#xad;" 
 />
    <glyph glyph-name="registered" unicode="&#xae;" horiz-adv-x="203" 
d="M44 447l28 185h78l-43 -185h-63v0z" />
    <glyph glyph-name="glyph263" unicode="&#xaf;" 
 />
    <glyph glyph-name="glyph264" unicode="&#xb0;" 
 />
    <glyph glyph-name="mu" unicode="&#xb1;" 
 />
    <glyph glyph-name="uni00B2" unicode="&#xb2;" 
 />
    <glyph glyph-name="uni00B3" unicode="&#xb3;" 
 />
    <glyph glyph-name="acute" unicode="&#xb4;" 
 />
    <glyph glyph-name="oslash" unicode="&#xb5;" 
 />
    <glyph glyph-name="paragraph" unicode="&#xb6;" 
 />
    <glyph glyph-name="glyph265" unicode="&#xb7;" 
 />
    <glyph glyph-name="glyph121" unicode="&#xb8;" 
 />
    <glyph glyph-name="uni00B9" unicode="&#xb9;" 
 />
    <glyph glyph-name="Agrave" unicode="&#xba;" horiz-adv-x="454" 
 />
    <glyph glyph-name="Ydieresis" unicode="&#xbb;" 
 />
    <glyph glyph-name="onequarter" unicode="&#xbc;" 
 />
    <glyph glyph-name="glyph243" unicode="&#xbd;" 
 />
    <glyph glyph-name="threequarters" unicode="&#xbe;" 
 />
    <glyph glyph-name="oe" unicode="&#xbf;" horiz-adv-x="454" 
 />
    <glyph glyph-name="currency" unicode="&#xc0;" horiz-adv-x="203" 
d="M58 299h71v-480h-71v480v0zM37 398q0 25 17.5 36.5t38.5 11.5h1.5h1.5q20 -1 37 -16t17 -40q0 -23 -15 -36.5t-33 -16.5h-3h-4h-2.5h-2.5q-20 2 -36.5 17.5t-16.5 42.5v1z" />
    <glyph glyph-name="breve" unicode="&#xc1;" 
 />
    <glyph glyph-name="tilde" unicode="&#xc2;" horiz-adv-x="506" 
d="M215 519v113h72v-113h63v-79h-70q-64 -1 -100 -23.5t-36 -75.5q0 -58 33.5 -74.5t73.5 -17.5h7.5h7.5l84 1v-86h-56v-113h-70v113q-6 -1 -13 -0.5t-13 1.5q-54 10 -99.5 56.5t-45.5 126.5q3 57 27.5 91t53.5 52q28 16 52 21.5t29 5.5v1z" />
    <glyph glyph-name="guilsinglleft" unicode="&#xc3;" horiz-adv-x="809" 
d="M141 363h234v23v4.5v5.5q-2 62 -33 113.5t-101 51.5q-75 0 -105 -54t-30 -124v-381h-85v382q0 116 54 182.5t166 71.5q64 0 121 -30t83 -104q8 10 19 24t27 29q26 25 69 46t113 21l100 1v-70h-42q-89 -4 -142 -34.5t-81 -66.5q-23 -28 -31.5 -54t-8.5 -38l305 1v-78h-312
q11 -81 68.5 -141.5t158.5 -65.5l85 1v-77h-85q-1 -1 -3 -1.5t-4 -0.5h-5h-3h-15.5t-14.5 1q-45 7 -87 28.5t-69 45.5q-8 8 -15 16t-11 15v-104h-86v283h-234v78v0z" />
    <glyph glyph-name="Adieresis" unicode="&#xc4;" 
 />
    <glyph glyph-name="Aring" unicode="&#xc5;" horiz-adv-x="454" 
 />
    <glyph glyph-name="Oslash" unicode="&#xc6;" 
 />
    <glyph glyph-name="Ccedilla" unicode="&#xc7;" horiz-adv-x="242" 
d="M56 306q0 12 2 26t6 29q13 40 47 74t100 34q81 0 122.5 -46.5t41.5 -110.5q0 -10 -1.5 -21t-4.5 -22q-12 -45 -48.5 -82.5t-100.5 -37.5q-59 0 -93 26t-50 57q-12 22 -16.5 42t-4.5 31v1z" />
    <glyph glyph-name="ring" unicode="&#xc8;" horiz-adv-x="506" 
d="M39 292v78h56v100q5 78 56 123t112 51q4 1 8.5 1h8.5q37 0 62.5 -8.5t36.5 -19.5l-22 -77q-5 1 -10 3t-11 4q-13 5 -27 9.5t-29 4.5q-49 0 -74.5 -30.5t-25.5 -84.5v-76h107v-78h-100v-121q0 -38 -9.5 -63t-26.5 -30l108 1q2 -1 3.5 -1t3.5 -1h0.5h0.5q3 0 5 -0.5t3 -0.5
q42 0 73 25.5t31 68.5v122h86v-121q0 -12 -1.5 -23t-4.5 -22q-12 -48 -52 -87t-115 -39h-2.5h-3.5t-3.5 0.5t-2.5 0.5l-291 1v77h36q33 -1 55 17.5t22 52.5v15l-7 128h-56v0z" />
    <glyph glyph-name="Eacute" unicode="&#xc9;" 
 />
    <glyph glyph-name="macron" unicode="&#xca;" horiz-adv-x="454" 
 />
    <glyph glyph-name="dotaccent" unicode="&#xcb;" horiz-adv-x="506" 
d="M32 213v79h169v57h-169v77h148q-5 9 -10.5 18t-10.5 17q-38 56 -76 71t-79 15v85q89 -6 157 -55.5t84 -130.5q0 4 1 8.5t2 8.5q13 61 80.5 112t157.5 56v-83q-49 -1 -92.5 -22t-85.5 -101l150 1v-77h-164v-57h164v-79h-164v-211h-93v211h-169v0z" />
    <glyph glyph-name="caron" unicode="&#xcc;" 
 />
    <glyph glyph-name="cedilla" unicode="&#xcd;" 
 />
    <glyph glyph-name="hungarumlaut" unicode="&#xce;" horiz-adv-x="454" 
 />
    <glyph glyph-name="ogonek" unicode="&#xcf;" horiz-adv-x="464" 
d="M144 433q-3 2 -5.5 4.5t-4.5 5.5q-17 20 -28 40.5t-11 48.5q0 48 36 80.5t84 32.5q39 0 65.5 -12.5t42.5 -27.5q13 -11 21 -21.5t13 -15.5l-56 -42q-16 21 -33.5 38.5t-43.5 17.5q-28 0 -41.5 -14.5t-13.5 -31.5q0 -4 0.5 -8t2.5 -9q3 -10 9 -19.5t13 -16.5l50.5 -50.5
l75.5 -75.5l5 -5l4 -4q28 -28 43 -48t21 -38q4 -10 5.5 -20.5t1.5 -22.5q0 -37 -22.5 -61.5t-48.5 -32.5q-7 -3 -14 -4t-14 -1q3 -4 6.5 -8.5t6.5 -9.5q14 -18 25 -41.5t11 -52.5q0 -47 -32.5 -83t-102.5 -36q-43 0 -70.5 16t-44.5 35q-8 9 -14.5 18t-11.5 16l56 42
q11 -23 27 -36.5t33 -18.5q7 -3 14 -4t13 -1q22 0 39 12.5t17 32.5q0 11 -4 22.5t-10 23.5q-8 15 -18.5 29t-21.5 26q-2 3 -5 5.5t-6 5.5q-13 11 -27.5 25t-28.5 30q-4 3 -7.5 7t-7.5 8q-11 12 -21.5 23.5t-20.5 21.5q-4 4 -10 10.5t-12 16.5q-10 15 -18.5 35.5t-8.5 43.5
q0 37 20 62.5t78 35.5v1zM215 349q-17 12 -31.5 19.5t-25.5 7.5q-4 0 -8.5 -1.5t-8.5 -3.5q-1 -1 -2 -1.5t-2 -0.5q-5 -4 -9 -10.5t-6 -14.5q-1 -1 -1 -3v-4q0 -7 3 -16.5t9 -19.5q2 -5 5 -9l6 -8q19 -23 34 -39.5t29 -30.5q2 -3 4 -5l4 -4t5 -4.5t5 -5.5q9 -7 19 -13.5
t21 -9.5q4 -2 9 -3t9 -1q3 0 6 0.5t7 2.5q3 1 6 2.5t6 3.5q6 4 9 9t4 10q1 2 1 3.5v3.5q0 9 -5 21t-13 25q-2 3 -4.5 7t-5.5 7q-8 8 -18.5 19.5t-21.5 23.5q0 1 -0.5 1.5l-1.5 1.5q-10 11 -19.5 21t-17.5 18v1z" />
    <glyph glyph-name="glyph232" unicode="&#xd0;" 
 />
    <glyph glyph-name="Ntilde" unicode="&#xd1;" horiz-adv-x="545" 
d="M213 -125v417q-85 -1 -137.5 42.5t-52.5 111.5q0 89 40.5 126t89.5 47q16 3 31 4t29 1l257 1v-750h-79v694h-99v-694h-79v0z" />
    <glyph glyph-name="scaron" unicode="&#xd2;" horiz-adv-x="454" 
 />
    <glyph glyph-name="Lslash" unicode="&#xd3;" 
 />
    <glyph glyph-name="lslash" unicode="&#xd4;" 
 />
    <glyph glyph-name="guilsinglright" unicode="&#xd5;" horiz-adv-x="707" 
d="M97 100q-33 39 -49.5 74t-22.5 69q-4 20 -5 40.5t-1 42.5q0 25 8.5 62t28.5 77q33 62 101 114.5t188 58.5q69 0 108 -15t65 -32q9 -6 17 -12t16 -11l70 71h94l-115 -113q7 -9 14.5 -19t15.5 -22q19 -29 34.5 -71.5t15.5 -101.5q0 -27 -7 -63.5t-25 -75.5
q-31 -70 -104 -127.5t-206 -57.5q-56 0 -94 11t-63 25q-13 7 -23 14t-19 12l-63 -62h-92l113 112v0zM509 129q33 32 52.5 72.5t23.5 82.5q0 5 0.5 10.5t0.5 10.5q0 20 -2 42t-9 43q-5 19 -14.5 37t-23.5 35l-342 -348q3 -3 6 -4.5t6 -3.5q27 -15 63.5 -27.5t78.5 -12.5
q19 0 39.5 3.5t40.5 11.5q20 7 40.5 19t39.5 28v1zM153 157l342 355q-17 8 -34 15.5t-34 12.5q-22 7 -43.5 10.5t-41.5 3.5q-91 0 -160 -61t-71 -174q0 -17 3 -53.5t21 -76.5q4 -9 8.5 -17t9.5 -16v1z" />
    <glyph glyph-name="Odieresis" unicode="&#xd6;" 
 />
    <glyph glyph-name="multiply" unicode="&#xd7;" 
 />
    <glyph glyph-name="plusminus" unicode="&#xd8;" 
 />
    <glyph glyph-name="Thorn" unicode="&#xd9;" horiz-adv-x="454" 
 />
    <glyph glyph-name="Eth" unicode="&#xda;" 
 />
    <glyph glyph-name="eth" unicode="&#xdb;" horiz-adv-x="454" 
 />
    <glyph glyph-name="Udieresis" unicode="&#xdc;" 
 />
    <glyph glyph-name="Yacute" unicode="&#xdd;" 
 />
    <glyph glyph-name="glyph236" unicode="&#xde;" 
 />
    <glyph glyph-name="germandbls" unicode="&#xdf;" 
 />
    <glyph glyph-name="agrave" unicode="&#xe0;" horiz-adv-x="242" 
d="M-7 548q1 25 14.5 36.5t34.5 11.5h1.5h1.5q20 -1 37 -12.5t17 -36.5q0 -24 -13.5 -37t-30.5 -15q-2 -1 -3.5 -1h-3.5h-2.5h-3.5q-17 2 -31.5 15t-16.5 38zM141 548q0 25 14 36.5t35 11.5q23 0 40.5 -11.5t17.5 -37.5q0 -25 -15 -38t-34 -15h-2.5h-2.5q-20 0 -36.5 13
t-16.5 40v1z" />
    <glyph glyph-name="aacute" unicode="&#xe1;" horiz-adv-x="454" 
 />
    <glyph glyph-name="acircumflex" unicode="&#xe2;" 
 />
    <glyph glyph-name="atilde" unicode="&#xe3;" 
 />
    <glyph glyph-name="adieresis" unicode="&#xe4;" 
 />
    <glyph glyph-name="aring" unicode="&#xe5;" 
 />
    <glyph glyph-name="Otilde" unicode="&#xe6;" 
 />
    <glyph glyph-name="ccedilla" unicode="&#xe7;" 
 />
    <glyph glyph-name="egrave" unicode="&#xe8;" 
 />
    <glyph glyph-name="eacute" unicode="&#xe9;" horiz-adv-x="454" 
 />
    <glyph glyph-name="ecircumflex" unicode="&#xea;" horiz-adv-x="454" 
 />
    <glyph glyph-name="edieresis" unicode="&#xeb;" horiz-adv-x="454" 
 />
    <glyph glyph-name="igrave" unicode="&#xec;" 
 />
    <glyph glyph-name="iacute" unicode="&#xed;" 
 />
    <glyph glyph-name="icircumflex" unicode="&#xee;" 
 />
    <glyph glyph-name="idieresis" unicode="&#xef;" 
 />
    <glyph glyph-name="glyph233" unicode="&#xf0;" 
 />
    <glyph glyph-name="ntilde" unicode="&#xf1;" horiz-adv-x="454" 
 />
    <glyph glyph-name="ograve" unicode="&#xf2;" horiz-adv-x="454" 
 />
    <glyph glyph-name="oacute" unicode="&#xf3;" horiz-adv-x="454" 
 />
    <glyph glyph-name="ocircumflex" unicode="&#xf4;" horiz-adv-x="242" 
d="M56 477l85 127h100l-121 -127h-64v0z" />
    <glyph glyph-name="otilde" unicode="&#xf5;" horiz-adv-x="454" 
 />
    <glyph glyph-name="odieresis" unicode="&#xf6;" horiz-adv-x="454" 
 />
    <glyph glyph-name="Aacute" unicode="&#xf7;" 
 />
    <glyph glyph-name="OE" unicode="&#xf8;" 
 />
    <glyph glyph-name="ugrave" unicode="&#xf9;" horiz-adv-x="242" 
d="M56 -69l57 78h49l-49 -64q4 1 8 2.5t9 2.5q4 1 8 1.5t8 0.5q28 0 51 -19.5t23 -50.5q0 -6 -1.5 -13.5t-4.5 -15.5q-8 -18 -32.5 -33t-75.5 -15q-18 0 -32.5 2.5t-27.5 7.5q-6 2 -12 5t-13 6l21 35l6 -2l6 -2q7 -1 14.5 -3t15.5 -3q5 -1 10 -1.5t10 -0.5q17 0 30.5 7
t13.5 26q0 14 -12.5 25.5t-29.5 11.5q-3 0 -7 -0.5t-7 -2.5q-4 -1 -8 -2.5t-7 -3.5l-21 21v0z" />
    <glyph glyph-name="uacute" unicode="&#xfa;" horiz-adv-x="454" 
 />
    <glyph glyph-name="ucircumflex" unicode="&#xfb;" horiz-adv-x="454" 
 />
    <glyph glyph-name="udieresis" unicode="&#xfc;" horiz-adv-x="454" 
 />
    <glyph glyph-name="yacute" unicode="&#xfd;" 
 />
    <glyph glyph-name="glyph237" unicode="&#xfe;" 
 />
    <glyph glyph-name="Egrave" unicode="&#xff;" 
 />
    <glyph glyph-name="Abreve" unicode="&#x102;" 
 />
    <glyph glyph-name="abreve" unicode="&#x103;" 
 />
    <glyph glyph-name="Aogonek" unicode="&#x104;" 
 />
    <glyph glyph-name="aogonek" unicode="&#x105;" 
 />
    <glyph glyph-name="Cacute" unicode="&#x106;" 
 />
    <glyph glyph-name="cacute" unicode="&#x107;" 
 />
    <glyph glyph-name="Ccaron" unicode="&#x10c;" 
 />
    <glyph glyph-name="ccaron" unicode="&#x10d;" 
 />
    <glyph glyph-name="Dcaron" unicode="&#x10e;" 
 />
    <glyph glyph-name="dcaron" unicode="&#x10f;" 
 />
    <glyph glyph-name="Dcroat" unicode="&#x110;" 
 />
    <glyph glyph-name="dcroat" unicode="&#x111;" 
 />
    <glyph glyph-name="Eogonek" unicode="&#x118;" 
 />
    <glyph glyph-name="eogonek" unicode="&#x119;" 
 />
    <glyph glyph-name="Ecaron" unicode="&#x11a;" 
 />
    <glyph glyph-name="ecaron" unicode="&#x11b;" 
 />
    <glyph glyph-name="Gbreve" unicode="&#x11e;" 
 />
    <glyph glyph-name="gbreve" unicode="&#x11f;" 
 />
    <glyph glyph-name="Idotaccent" unicode="&#x130;" 
 />
    <glyph glyph-name="thorn" unicode="&#x131;" 
 />
    <glyph glyph-name="Lacute" unicode="&#x139;" 
 />
    <glyph glyph-name="lacute" unicode="&#x13a;" 
 />
    <glyph glyph-name="Lcaron" unicode="&#x13d;" 
 />
    <glyph glyph-name="lcaron" unicode="&#x13e;" 
 />
    <glyph glyph-name="Ldot" unicode="&#x13f;" 
 />
    <glyph glyph-name="ldot" unicode="&#x140;" 
 />
    <glyph glyph-name="glyph225" unicode="&#x141;" 
 />
    <glyph glyph-name="glyph226" unicode="&#x142;" 
 />
    <glyph glyph-name="Nacute" unicode="&#x143;" 
 />
    <glyph glyph-name="nacute" unicode="&#x144;" 
 />
    <glyph glyph-name="Ncaron" unicode="&#x147;" 
 />
    <glyph glyph-name="ncaron" unicode="&#x148;" 
 />
    <glyph glyph-name="Ohungarumlaut" unicode="&#x150;" 
 />
    <glyph glyph-name="ohungarumlaut" unicode="&#x151;" 
 />
    <glyph glyph-name="fi" unicode="&#x152;" 
 />
    <glyph glyph-name="fl" unicode="&#x153;" horiz-adv-x="809" 
d="M21 391q8 4 17.5 9t20.5 10q27 13 61.5 24t70.5 12h3.5h2.5q59 0 111.5 -25.5t73.5 -72.5q3 6 7 13t9 13q21 27 61 49.5t108 22.5q64 0 109.5 -30.5t71.5 -66.5q12 -16 19.5 -30.5t12.5 -27.5l-298 -127l-37 72l213 84q-16 21 -44.5 35t-60.5 14q-11 0 -24.5 -4
t-27.5 -11q-31 -18 -57.5 -54t-26.5 -88q0 -56 33 -88.5t73 -44.5q13 -4 26 -6t25 -2q44 4 67 17t42 42q8 12 16 27t18 34l70 -27q-24 -77 -66 -114t-88 -49q-15 -3 -30 -4.5t-29 -1.5q-65 0 -102.5 15.5t-57.5 35.5q-15 14 -23.5 26.5t-15.5 19.5q-31 -47 -77.5 -72
t-121.5 -25q-10 0 -20.5 1t-21.5 2q-45 7 -82.5 35t-37.5 87q0 72 55.5 111t122.5 60q33 9 64 16t56 12q-22 22 -52 36t-63 14q-39 0 -67 -8t-47 -18q-9 -5 -15.5 -9t-11.5 -8l-35 65v0zM340 250q-40 -5 -72.5 -13.5t-63.5 -21.5q-14 -5 -27.5 -11.5t-28.5 -12.5
q-16 -6 -28.5 -19.5t-19.5 -28.5q-2 -6 -3.5 -12t-1.5 -11q0 -19 19.5 -34t61.5 -15q75 0 119.5 44t44.5 116v19v0z" />
    <glyph glyph-name="Racute" unicode="&#x154;" 
 />
    <glyph glyph-name="racute" unicode="&#x155;" 
 />
    <glyph glyph-name="Rcaron" unicode="&#x158;" 
 />
    <glyph glyph-name="rcaron" unicode="&#x159;" 
 />
    <glyph glyph-name="Sacute" unicode="&#x15a;" 
 />
    <glyph glyph-name="sacute" unicode="&#x15b;" 
 />
    <glyph glyph-name="Scedilla" unicode="&#x15e;" 
 />
    <glyph glyph-name="scedilla" unicode="&#x15f;" 
 />
    <glyph glyph-name="glyph227" unicode="&#x160;" horiz-adv-x="305" 
d="M-4 498q1 52 28 80.5t59 41.5q17 6 33 8.5t28 2.5q8 0 16 -0.5t16 -2.5q47 -8 86 -41.5t39 -96.5q0 -54 -48.5 -94.5t-108.5 -40.5q-63 5 -105 38.5t-42 103.5zM60 498q0 -6 0.5 -10.5t0.5 -9.5q3 -28 20.5 -51t62.5 -23q41 0 63.5 23t28.5 51q1 5 1.5 9.5t0.5 9.5
q-5 48 -30.5 66.5t-63.5 18.5q-46 0 -64.5 -25.5t-19.5 -56.5v-1.5v-1.5v1z" />
    <glyph glyph-name="glyph228" unicode="&#x161;" 
 />
    <glyph glyph-name="uni0162" unicode="&#x162;" 
 />
    <glyph glyph-name="uni0163" unicode="&#x163;" 
 />
    <glyph glyph-name="Tcaron" unicode="&#x164;" 
 />
    <glyph glyph-name="tcaron" unicode="&#x165;" 
 />
    <glyph glyph-name="Uring" unicode="&#x16e;" 
 />
    <glyph glyph-name="uring" unicode="&#x16f;" 
 />
    <glyph glyph-name="Uhungarumlaut" unicode="&#x170;" 
 />
    <glyph glyph-name="uhungarumlaut" unicode="&#x171;" 
 />
    <glyph glyph-name="Iacute" unicode="&#x178;" 
 />
    <glyph glyph-name="Zacute" unicode="&#x179;" 
 />
    <glyph glyph-name="zacute" unicode="&#x17a;" 
 />
    <glyph glyph-name="Zdotaccent" unicode="&#x17b;" 
 />
    <glyph glyph-name="zdotaccent" unicode="&#x17c;" 
 />
    <glyph glyph-name="Zcaron" unicode="&#x17d;" 
 />
    <glyph glyph-name="zcaron" unicode="&#x17e;" 
 />
    <glyph glyph-name="quotedblright" unicode="&#x192;" 
 />
    <glyph glyph-name="uni02BA" unicode="&#x2ba;" 
 />
    <glyph glyph-name="arrowright" unicode="&#x2c6;" 
 />
    <glyph glyph-name="glyph224" unicode="&#x2c7;" 
 />
    <glyph glyph-name="house" unicode="&#x2c9;" 
 />
    <glyph glyph-name="endash" unicode="&#x2d8;" 
 />
    <glyph glyph-name="sfthyphen" unicode="&#x2d9;" 
 />
    <glyph glyph-name="filledbox" unicode="&#x2da;" 
 />
    <glyph glyph-name="glyph223" unicode="&#x2db;" 
 />
    <glyph glyph-name="onehalf" unicode="&#x2dc;" 
 />
    <glyph glyph-name="Gamma" unicode="&#x393;" 
 />
    <glyph glyph-name="Theta" unicode="&#x398;" 
 />
    <glyph glyph-name="exclamdown" unicode="&#x3a3;" 
 />
    <glyph glyph-name="Phi" unicode="&#x3a6;" 
 />
    <glyph glyph-name="Atilde" unicode="&#x3a9;" 
 />
    <glyph glyph-name="alpha" unicode="&#x3b1;" 
 />
    <glyph glyph-name="delta" unicode="&#x3b4;" 
 />
    <glyph glyph-name="epsilon" unicode="&#x3b5;" 
 />
    <glyph glyph-name="guillemotleft" unicode="&#x3c0;" 
 />
    <glyph glyph-name="sigma" unicode="&#x3c3;" 
 />
    <glyph glyph-name="tau" unicode="&#x3c4;" 
 />
    <glyph glyph-name="phi" unicode="&#x3c6;" 
 />
    <glyph glyph-name="glyph259" unicode="&#x2013;" 
 />
    <glyph glyph-name="periodcentered" unicode="&#x2014;" horiz-adv-x="454" 
 />
    <glyph glyph-name="underscoredbl" unicode="&#x2017;" 
 />
    <glyph glyph-name="Acircumflex" unicode="&#x2018;" 
 />
    <glyph glyph-name="Ecircumflex" unicode="&#x2019;" 
 />
    <glyph glyph-name="Ugrave" unicode="&#x201a;" 
 />
    <glyph glyph-name="quotedblbase" unicode="&#x201c;" horiz-adv-x="454" 
 />
    <glyph glyph-name="perthousand" unicode="&#x201d;" horiz-adv-x="454" 
 />
    <glyph glyph-name="dotlessi" unicode="&#x201e;" 
 />
    <glyph glyph-name="dagger" unicode="&#x2020;" 
 />
    <glyph glyph-name="Uacute" unicode="&#x2021;" 
 />
    <glyph glyph-name="glyph262" unicode="&#x2022;" 
 />
    <glyph glyph-name="fraction" unicode="&#x2026;" 
 />
    <glyph glyph-name="circumflex" unicode="&#x2030;" 
 />
    <glyph glyph-name="Igrave" unicode="&#x2039;" horiz-adv-x="464" 
d="M53 220l112 136h73l-115 -136l122 -141h-80l-112 141v0zM208 220l114 136h71l-113 -136l120 -141h-78l-114 141v0z" />
    <glyph glyph-name="Oacute" unicode="&#x203a;" horiz-adv-x="454" 
 />
    <glyph glyph-name="exclamdbl" unicode="&#x203c;" 
 />
    <glyph glyph-name="uni207F" unicode="&#x207f;" 
 />
    <glyph glyph-name="franc" unicode="&#x20a3;" 
 />
    <glyph glyph-name="peseta" unicode="&#x20a7;" 
 />
    <glyph glyph-name="trademark" unicode="&#x2122;" horiz-adv-x="305" 
d="M39 384v248h77v-248h-77v0zM165 384v248h80v-248h-80v0z" />
    <glyph glyph-name="arrowleft" unicode="&#x2190;" 
 />
    <glyph glyph-name="arrowup" unicode="&#x2191;" 
 />
    <glyph glyph-name="glyph257" unicode="&#x2192;" horiz-adv-x="305" 
d="M238 377v156q-3 26 -19.5 39.5t-35.5 18.5q-11 3 -21 4t-18 1q-37 0 -60.5 -24.5t-23.5 -67.5q0 -6 1 -13t4 -14q7 -22 27 -40.5t52 -18.5q22 0 41.5 9t29.5 19v-48q-14 -15 -32 -21.5t-37 -7.5h-4.5h-4.5q-58 0 -99 39.5t-41 109.5q0 10 1.5 20.5t6.5 22.5
q13 31 47 57.5t92 26.5q73 0 104 -26.5t40 -58.5q4 -13 5 -25.5t1 -23.5v-134h-56v0z" />
    <glyph glyph-name="arrowdown" unicode="&#x2193;" 
 />
    <glyph glyph-name="arrowboth" unicode="&#x2194;" 
 />
    <glyph glyph-name="arrowupdn" unicode="&#x2195;" 
 />
    <glyph glyph-name="arrowupdnbse" unicode="&#x21a8;" 
 />
    <glyph glyph-name="questiondown" unicode="&#x2202;" 
 />
    <glyph glyph-name="quoteright" unicode="&#x2206;" 
 />
    <glyph glyph-name="florin" unicode="&#x220f;" 
 />
    <glyph glyph-name="minus" unicode="&#x2212;" 
 />
    <glyph glyph-name="Icircumflex" unicode="&#x2215;" 
 />
    <glyph glyph-name="Ucircumflex" unicode="&#x2219;" 
 />
    <glyph glyph-name="quotedblleft" unicode="&#x221a;" 
 />
    <glyph glyph-name="yen" unicode="&#x221e;" 
 />
    <glyph glyph-name="orthogonal" unicode="&#x221f;" 
 />
    <glyph glyph-name="intersection" unicode="&#x2229;" 
 />
    <glyph glyph-name="guillemotright" unicode="&#x222b;" 
 />
    <glyph glyph-name="quoteleft" unicode="&#x2248;" 
 />
    <glyph glyph-name="AE" unicode="&#x2260;" 
 />
    <glyph glyph-name="equivalence" unicode="&#x2261;" 
 />
    <glyph glyph-name="ordfeminine" unicode="&#x2264;" 
 />
    <glyph glyph-name="ordmasculine" unicode="&#x2265;" 
 />
    <glyph glyph-name="glyph258" unicode="&#x2302;" 
 />
    <glyph glyph-name="revlogicalnot" unicode="&#x2310;" 
 />
    <glyph glyph-name="integraltp" unicode="&#x2320;" 
 />
    <glyph glyph-name="integralbt" unicode="&#x2321;" 
 />
    <glyph glyph-name="SF100000" unicode="&#x2500;" 
 />
    <glyph glyph-name="SF110000" unicode="&#x2502;" 
 />
    <glyph glyph-name="SF010000" unicode="&#x250c;" 
 />
    <glyph glyph-name="SF030000" unicode="&#x2510;" 
 />
    <glyph glyph-name="SF020000" unicode="&#x2514;" 
 />
    <glyph glyph-name="SF040000" unicode="&#x2518;" 
 />
    <glyph glyph-name="SF080000" unicode="&#x251c;" 
 />
    <glyph glyph-name="SF090000" unicode="&#x2524;" 
 />
    <glyph glyph-name="SF060000" unicode="&#x252c;" 
 />
    <glyph glyph-name="SF070000" unicode="&#x2534;" 
 />
    <glyph glyph-name="SF050000" unicode="&#x253c;" 
 />
    <glyph glyph-name="SF430000" unicode="&#x2550;" 
 />
    <glyph glyph-name="SF240000" unicode="&#x2551;" 
 />
    <glyph glyph-name="SF510000" unicode="&#x2552;" 
 />
    <glyph glyph-name="SF520000" unicode="&#x2553;" 
 />
    <glyph glyph-name="SF390000" unicode="&#x2554;" 
 />
    <glyph glyph-name="SF220000" unicode="&#x2555;" 
 />
    <glyph glyph-name="SF210000" unicode="&#x2556;" 
 />
    <glyph glyph-name="SF250000" unicode="&#x2557;" 
 />
    <glyph glyph-name="SF500000" unicode="&#x2558;" 
 />
    <glyph glyph-name="SF490000" unicode="&#x2559;" 
 />
    <glyph glyph-name="SF380000" unicode="&#x255a;" 
 />
    <glyph glyph-name="SF280000" unicode="&#x255b;" 
 />
    <glyph glyph-name="SF270000" unicode="&#x255c;" 
 />
    <glyph glyph-name="SF260000" unicode="&#x255d;" 
 />
    <glyph glyph-name="SF360000" unicode="&#x255e;" 
 />
    <glyph glyph-name="SF370000" unicode="&#x255f;" 
 />
    <glyph glyph-name="SF420000" unicode="&#x2560;" 
 />
    <glyph glyph-name="SF190000" unicode="&#x2561;" 
 />
    <glyph glyph-name="SF200000" unicode="&#x2562;" 
 />
    <glyph glyph-name="SF230000" unicode="&#x2563;" 
 />
    <glyph glyph-name="SF470000" unicode="&#x2564;" 
 />
    <glyph glyph-name="SF480000" unicode="&#x2565;" 
 />
    <glyph glyph-name="SF410000" unicode="&#x2566;" 
 />
    <glyph glyph-name="SF450000" unicode="&#x2567;" 
 />
    <glyph glyph-name="SF460000" unicode="&#x2568;" 
 />
    <glyph glyph-name="SF400000" unicode="&#x2569;" 
 />
    <glyph glyph-name="SF540000" unicode="&#x256a;" 
 />
    <glyph glyph-name="SF530000" unicode="&#x256b;" 
 />
    <glyph glyph-name="SF440000" unicode="&#x256c;" 
 />
    <glyph glyph-name="upblock" unicode="&#x2580;" 
 />
    <glyph glyph-name="dnblock" unicode="&#x2584;" 
 />
    <glyph glyph-name="block" unicode="&#x2588;" 
 />
    <glyph glyph-name="lfblock" unicode="&#x258c;" 
 />
    <glyph glyph-name="rtblock" unicode="&#x2590;" 
 />
    <glyph glyph-name="ltshade" unicode="&#x2591;" 
 />
    <glyph glyph-name="shade" unicode="&#x2592;" 
 />
    <glyph glyph-name="dkshade" unicode="&#x2593;" 
 />
    <glyph glyph-name="glyph261" unicode="&#x25a0;" horiz-adv-x="454" 
 />
    <glyph glyph-name="filledrect" unicode="&#x25ac;" 
 />
    <glyph glyph-name="triagup" unicode="&#x25b2;" 
 />
    <glyph glyph-name="triagrt" unicode="&#x25ba;" 
 />
    <glyph glyph-name="triagdn" unicode="&#x25bc;" 
 />
    <glyph glyph-name="triaglf" unicode="&#x25c4;" 
 />
    <glyph glyph-name="Edieresis" unicode="&#x25ca;" 
 />
    <glyph glyph-name="circle" unicode="&#x25cb;" 
 />
    <glyph glyph-name="invbullet" unicode="&#x25d8;" 
 />
    <glyph glyph-name="invcircle" unicode="&#x25d9;" 
 />
    <glyph glyph-name="smileface" unicode="&#x263a;" 
 />
    <glyph glyph-name="invsmileface" unicode="&#x263b;" 
 />
    <glyph glyph-name="sun" unicode="&#x263c;" 
 />
    <glyph glyph-name="female" unicode="&#x2640;" 
 />
    <glyph glyph-name="male" unicode="&#x2642;" 
 />
    <glyph glyph-name="spade" unicode="&#x2660;" 
 />
    <glyph glyph-name="club" unicode="&#x2663;" 
 />
    <glyph glyph-name="heart" unicode="&#x2665;" 
 />
    <glyph glyph-name="diamond" unicode="&#x2666;" 
 />
    <glyph glyph-name="musicalnote" unicode="&#x266a;" 
 />
    <glyph glyph-name="musicalnotedbl" unicode="&#x266b;" 
 />
    <glyph glyph-name="Scaron" unicode="&#xf000;" 
 />
    <glyph glyph-name="Ocircumflex" unicode="&#xf001;" 
 />
    <glyph glyph-name="Ograve" unicode="&#xf002;" 
 />
    <glyph glyph-name="degree" horiz-adv-x="454" 
 />
    <glyph glyph-name="bullet" 
 />
    <glyph glyph-name="daggerdbl" 
 />
    </font>
</defs>
</svg>
