<?xml version="1.0" standalone="no"?>
<!DOCTYPE svg PUBLIC "-//W3C//DTD SVG 1.1//EN" "http://www.w3.org/Graphics/SVG/1.1/DTD/svg11.dtd" >
<svg xmlns="http://www.w3.org/2000/svg" xmlns:xlink="http://www.w3.org/1999/xlink" version="1.1">
<metadata>
Created by FontForge 20201107 at Fri Jan  1 02:30:17 1904
 By 
Converted by ALLTYPE
</metadata>
<defs>
<font id="Bauhaus-Heavy-Bold" horiz-adv-x="0" >
  <font-face 
    font-family="Bauhaus-Heavy-Bold"
    font-weight="5"
    font-stretch="normal"
    units-per-em="1000"
    panose-1="0 0 0 0 0 0 0 0 0 0"
    ascent="800"
    descent="-200"
    x-height="445"
    cap-height="638"
    bbox="-85 -194 789 746"
    underline-thickness="50"
    underline-position="-105"
    unicode-range="U+0020-F002"
  />
<missing-glyph 
 />
    <glyph glyph-name=".notdef" 
 />
    <glyph glyph-name="glyph1" 
 />
    <glyph glyph-name="glyph2" horiz-adv-x="458" 
 />
    <glyph glyph-name="space" unicode=" " horiz-adv-x="458" 
 />
    <glyph glyph-name="space" unicode="&#xa0;" horiz-adv-x="458" 
 />
    <glyph glyph-name="exclam" unicode="!" horiz-adv-x="311" 
d="M39 101q0 46 28.5 70t61.5 28q5 0 9 0.5t8 0.5q5 0 10.5 -0.5t11.5 -1.5q32 -7 59 -32t27 -66v-6q0 -49 -32 -74t-70 -27h-3.5h-2.5q-40 0 -73.5 26t-33.5 81v1zM60 231l-21 407h208l-21 -407h-166v0z" />
    <glyph glyph-name="quotedbl" unicode="&#x22;" horiz-adv-x="311" 
d="M-4 394v251h121v-251h-121v0zM167 394v251h123v-251h-123v0z" />
    <glyph glyph-name="numbersign" unicode="#" horiz-adv-x="492" 
d="M85 2l22 170h-71v94h85l14 107h-78v87h92l22 178h108l-21 -178h78l21 178h108l-23 -178h66v-87h-80l-14 -107h73v-94h-87l-22 -170h-106l21 170h-80l-21 -170h-107v0zM307 266l14 107h-78l-14 -107h78v0z" />
    <glyph glyph-name="dollar" unicode="$" horiz-adv-x="552" 
d="M208 2h-149v185h149q23 -1 34.5 3t11.5 13q0 11 -16 31.5t-51 45.5q-7 5 -14.5 10.5t-14.5 11.5q-37 28 -68 68t-31 103q0 64 41 103.5t90 50.5q5 1 9.5 2t8.5 1v80h94v-72h158v-178h-130q-4 -1 -9 -1.5t-10 -2.5q-11 -2 -20 -8t-9 -14q0 -5 7 -14t20 -20q18 -14 36 -27
t34 -25q46 -35 77.5 -75.5t31.5 -108.5q0 -58 -53 -108t-133 -55v-70h-94v71v0z" />
    <glyph glyph-name="percent" unicode="%" horiz-adv-x="797" 
d="M389 158q0 6 0.5 13t1.5 14q9 54 51.5 99t118.5 45q66 0 112.5 -47.5t51.5 -104.5q1 -3 1 -6.5v-6.5q0 -91 -51 -133.5t-121 -42.5q-64 0 -112 47.5t-53 121.5v1zM519 158q0 -22 13 -33t29 -11q17 0 30 11t13 32q0 22 -13 32.5t-30 10.5q-16 0 -29 -10.5t-13 -32.5v1z
M131 2l416 650h85l-415 -650h-86v0zM32 481q0 6 0.5 13.5t2.5 15.5q9 53 51 97t116 44q67 0 113 -46.5t52 -101.5q1 -4 1 -8v-8q0 -91 -51 -135t-122 -44q-64 0 -111 48t-52 124v1zM160 481q0 -23 13 -34t29 -11q18 0 31.5 11t13.5 33q0 21 -13 31.5t-29 11.5h-1.5h-1.5
q-16 0 -29 -10.5t-13 -32.5v1z" />
    <glyph glyph-name="ampersand" unicode="&#x26;" horiz-adv-x="737" 
d="M467 44q-20 -12 -40.5 -21t-41.5 -16q-28 -7 -55 -11.5t-53 -4.5q-103 0 -179.5 62.5t-76.5 172.5q0 1 0.5 2.5t0.5 3.5q0 1 0.5 2.5t0.5 2.5q0 74 32 119.5t75 72.5q-15 15 -26.5 32.5t-18.5 35.5q-5 11 -7 21.5t-2 20.5q0 38 34.5 68t111.5 30l274 1v-164h-166
l151 -179q8 7 12 19.5t4 27.5q0 10 -1.5 21t-5.5 22l-4 12t-5 11l142 73q23 -30 35.5 -67t12.5 -76q0 -14 -2 -29t-6 -30q-8 -30 -24.5 -59t-43.5 -56l144 -162h-236l-36 42v0zM345 187l-100 115q-2 -3 -4 -4.5t-3 -3.5q-14 -14 -22 -27.5t-8 -22.5q0 -17 5.5 -28.5
t17.5 -22.5q8 -11 22.5 -19t30.5 -8q14 0 29.5 5t31.5 15v1z" />
    <glyph glyph-name="quotesingle" unicode="'" horiz-adv-x="289" 
d="M43 423l49 222h144l-87 -222h-106v0z" />
    <glyph glyph-name="parenleft" unicode="(" horiz-adv-x="371" 
d="M256 -190q-106 88 -159.5 211t-53.5 253q0 16 1 31.5t2 30.5q11 112 62 219t141 190l92 -114q-49 -54 -80 -112t-46 -117q-8 -32 -12 -63t-4 -61q0 -106 42.5 -201.5t106.5 -159.5l-92 -107v0z" />
    <glyph glyph-name="parenright" unicode=")" horiz-adv-x="371" 
d="M20 -83q74 65 108.5 156.5t34.5 188.5q0 13 -0.5 26.5t-2.5 26.5q-8 91 -44.5 176.5t-95.5 145.5l85 109q81 -76 130 -160.5t71 -170.5q9 -36 13 -71.5t4 -70.5q0 -132 -56.5 -253t-154.5 -210l-92 107v0z" />
    <glyph glyph-name="asterisk" unicode="*" horiz-adv-x="471" 
d="M124 467l-85 29l64 106l71 -50l-7 93h123l-8 -93l64 50l64 -106l-78 -29l78 -37l-64 -107l-64 50l8 -85h-123l7 85l-71 -50l-64 107l85 37v0z" />
    <glyph glyph-name="plus" unicode="+" horiz-adv-x="552" 
d="M201 165h-164v123h164v163h122v-163h165v-123h-165v-163h-122v163v0z" />
    <glyph glyph-name="comma" unicode="," horiz-adv-x="289" 
d="M7 -62l43 270h186l-87 -270h-142v0z" />
    <glyph glyph-name="hyphen" unicode="-" horiz-adv-x="350" 
d="M44 172v123h251v-123h-251v0z" />
    <glyph glyph-name="period" unicode="." horiz-adv-x="289" 
d="M43 101q0 47 31.5 73t74.5 26q5 0 10 -0.5t10 -1.5q33 -6 61 -31t28 -67v-6q0 -48 -31.5 -73t-69.5 -28h-4h-4q-40 0 -73 26t-33 81v1z" />
    <glyph glyph-name="slash" unicode="/" horiz-adv-x="410" 
d="M-11 -5l293 657h121l-293 -657h-121v0z" />
    <glyph glyph-name="zero" unicode="0" horiz-adv-x="552" 
d="M30 252v164q0 96 62.5 165.5t181.5 69.5q95 0 165.5 -59.5t70.5 -162.5v-207q0 -102 -62 -168t-174 -66q-97 0 -170.5 62t-73.5 201v1zM309 215v215q0 18 -12 27t-27 9t-27 -9t-12 -28v-214q0 -25 12 -37t27 -12t27 12t12 36v1z" />
    <glyph glyph-name="one" unicode="1" horiz-adv-x="552" 
d="M187 2v479h-79v157h279v-636h-200v0z" />
    <glyph glyph-name="two" unicode="2" horiz-adv-x="552" 
d="M330 165h173v-163h-409q-24 -1 -44 16t-20 45q0 11 5 24t13 26q3 4 5.5 8t5.5 8l236 265q4 3 7 7.5t4 9.5q2 4 2.5 7.5t0.5 6.5v1.5v1.5q-1 14 -12.5 26t-30.5 12q-18 0 -29 -12t-11 -27q0 -3 0.5 -6t1.5 -6q3 -8 8.5 -15.5t15.5 -13.5l-122 -134q-44 28 -69 68.5
t-30 83.5q0 5 -0.5 10.5t-0.5 10.5v1.5v1.5q1 80 62.5 146.5t173.5 69.5q92 0 147 -39t79 -85q9 -19 13.5 -36.5t4.5 -33.5v-15q0 -39 -11.5 -68.5t-32.5 -57.5q-23 -31 -58 -65t-78 -80v1z" />
    <glyph glyph-name="three" unicode="3" horiz-adv-x="552" 
d="M44 2v177h201q27 -1 38.5 9.5t11.5 23.5q0 2 -0.5 4.5t-0.5 4.5q-4 14 -17 25.5t-32 11.5l-137 1v100l144 101h-193v178h314q5 -1 9.5 -1.5t8.5 -1.5q34 -7 62 -36t28 -69q0 -26 -16.5 -56t-55.5 -61q-11 -9 -23.5 -17.5t-26.5 -16.5q70 -25 104 -75t36 -105v-2.5v-2.5
q0 -73 -56.5 -133t-161.5 -60l-237 1v0z" />
    <glyph glyph-name="four" unicode="4" horiz-adv-x="552" 
d="M252 2v128h-158q-41 -1 -65 23t-24 61q0 15 4 32t11 35q3 5 5 10t5 10l194 337h185l-222 -357h79v78l178 279v-343h73v-165h-73v-128h-192v0z" />
    <glyph glyph-name="five" unicode="5" horiz-adv-x="552" 
d="M59 2v177h172q20 -1 31 9.5t13 22.5v2.5v2.5q0 2 -0.5 4t-0.5 5q-3 12 -14 22.5t-29 10.5l-165 1v379h371v-171h-178v-44h20q99 -1 151.5 -64t54.5 -139v-3.5v-2.5v-4v-5q-3 -76 -60.5 -140t-172.5 -64l-193 1v0z" />
    <glyph glyph-name="six" unicode="6" horiz-adv-x="552" 
d="M215 638h215l-192 -393q-1 -2 -1.5 -3.5t-0.5 -2.5l-2 -4l-2 -4q-2 -6 -3.5 -11.5t-1.5 -9.5q0 -19 15.5 -32.5t38.5 -13.5q24 0 35 12.5t11 28.5v3.5t-1 3.5q-2 17 -16 31.5t-36 14.5l85 172q72 -31 109 -80t45 -101q1 -8 1.5 -16t0.5 -16q0 -83 -62 -151.5t-165 -70.5
h-13q-110 0 -172 65.5t-62 156.5q0 22 4 45.5t12 47.5q3 10 7 20.5t9 20.5l142 287v0z" />
    <glyph glyph-name="seven" unicode="7" horiz-adv-x="552" 
d="M94 2l172 465h-214v171h271q70 -1 115 -20t45 -68q0 -8 -1.5 -18.5t-4.5 -20.5q-1 -3 -1.5 -5t-1.5 -4l-172 -500h-208v0z" />
    <glyph glyph-name="eight" unicode="8" horiz-adv-x="552" 
d="M115 359q-24 13 -39.5 44t-15.5 67q0 6 0.5 12.5t1.5 13.5q9 53 59 97t153 44q101 0 148.5 -44t56.5 -97q1 -7 1.5 -13.5t0.5 -12.5v-2.5v-2.5q-1 -33 -14.5 -63t-36.5 -44q38 -20 58 -63.5t20 -93.5q0 -7 -0.5 -14.5t-1.5 -14.5q-9 -70 -66 -127t-172 -57h-9
q-101 0 -159 60.5t-66 133.5q-1 6 -1.5 12.5t-0.5 12.5q0 47 21 88t62 63v1zM224 208q0 -23 13 -33.5t29 -10.5q3 0 6 0.5t6 0.5q14 3 26 13.5t12 28.5q0 24 -14 37.5t-31 15.5h-2.5h-2.5q-3 0 -6 -0.5t-5 -1.5q-13 -4 -23 -15.5t-10 -28.5q0 -1 0.5 -2l0.5 -1q0 -1 0.5 -2
t0.5 -2v1zM231 437q0 -22 9.5 -33t25.5 -11q17 0 30 11t13 32q0 24 -12 36t-27 12t-27 -12t-12 -36v1z" />
    <glyph glyph-name="nine" unicode="9" horiz-adv-x="552" 
d="M115 2l187 371q2 4 3.5 8.5t2.5 10.5q2 5 2.5 10t0.5 9q0 21 -11.5 38t-33.5 17q-19 0 -32 -11.5t-16 -25.5q0 -2 -0.5 -4.5t-0.5 -4.5v-4.5t1 -4.5q3 -13 15 -24.5t33 -14.5l-79 -164q-76 24 -114 79t-41 117v4.5v4.5v5.5v5.5q4 80 63.5 146.5t163.5 66.5
q123 0 179.5 -63.5t64.5 -139.5q0 -6 0.5 -12.5t0.5 -12.5q0 -29 -6 -57t-17 -51l-151 -299h-215v0z" />
    <glyph glyph-name="colon" unicode=":" horiz-adv-x="289" 
d="M28 94q0 47 32 73t75 26q5 0 9.5 -0.5t8.5 -1.5q34 -5 62 -30.5t28 -67.5v-6q0 -49 -32 -74t-70 -27h-3.5h-2.5h-1.5h-1.5q-39 1 -71.5 27t-32.5 80v1zM28 352q0 47 32 72.5t75 25.5q5 0 9.5 -0.5t8.5 -1.5q34 -5 62 -30t28 -67v-6q0 -50 -32 -77t-70 -29h-3.5h-2.5h-1.5
h-1.5q-39 1 -71.5 29.5t-32.5 82.5v1z" />
    <glyph glyph-name="semicolon" unicode=";" horiz-adv-x="289" 
d="M7 -62l43 270h186l-87 -270h-142v0zM28 352q0 47 32 72.5t75 25.5q5 0 9.5 -0.5t8.5 -1.5q34 -5 62 -30t28 -67v-6q0 -50 -32 -77t-70 -29h-3.5h-2.5h-1.5h-1.5q-39 1 -71.5 29.5t-32.5 82.5v1z" />
    <glyph glyph-name="less" unicode="&#x3c;" horiz-adv-x="552" 
d="M179 231l317 -130v-128l-466 199v116l466 186v-129l-309 -114h-8v0z" />
    <glyph glyph-name="equal" unicode="=" horiz-adv-x="552" 
d="M37 66v121h459v-121h-459v0zM37 266v121h459v-121h-459v0z" />
    <glyph glyph-name="greater" unicode="&#x3e;" horiz-adv-x="552" 
d="M345 231l-308 128v129l459 -200v-116l-459 -192v121l308 130v0z" />
    <glyph glyph-name="question" unicode="?" horiz-adv-x="471" 
d="M117 101q0 47 32.5 73t76.5 26q5 0 9.5 -0.5t8.5 -1.5q33 -5 60.5 -30.5t27.5 -67.5v-6q0 -49 -32 -74t-70 -27h-3.5h-2.5h-1.5h-1.5q-39 1 -71.5 27t-32.5 80v1zM139 231v170h63q29 -1 40.5 9t11.5 22v3.5t-1 3.5q-3 12 -15.5 22t-26.5 10q-4 0 -8.5 -1t-9.5 -4
q-7 -3 -14 -10.5t-12 -19.5l-171 74q29 57 88 93.5t124 43.5q7 1 14.5 1.5t15.5 0.5h8h8q53 -4 102 -31t76 -81q6 -14 10.5 -30t6.5 -33q1 -8 1.5 -16.5t0.5 -16.5q0 -65 -37 -119t-110 -57v-34h-165v0z" />
    <glyph glyph-name="at" unicode="@" horiz-adv-x="737" 
d="M474 481h78l-42 -229q0 -2 -0.5 -3t-0.5 -2q0 -2 -0.5 -3t-0.5 -2q0 -14 7 -22t16 -8q6 0 12.5 3t12.5 8q17 15 31.5 48.5t14.5 86.5q0 108 -65.5 154.5t-163.5 46.5q-96 0 -166 -58.5t-70 -192.5q0 -114 72 -172t158 -65q7 0 13.5 -0.5t12.5 -0.5q45 0 87.5 14t71.5 38
l100 1q-38 -67 -114.5 -101.5t-161.5 -35.5h-2.5h-2.5h-10h-9q-121 6 -221.5 85.5t-100.5 243.5q0 131 91 230t245 99l14 1q136 -5 226 -74.5t90 -212.5v-13q0 -73 -45 -125.5t-99 -78.5q-23 -11 -45.5 -17t-41.5 -6q-25 0 -40.5 12t-15.5 34q-16 -19 -38.5 -30.5
t-45.5 -13.5h-5h-4q-4 0 -8.5 0.5t-9.5 0.5q-47 8 -87 51t-40 111v2.5t1 3.5v2.5v2.5q6 81 50.5 129t96.5 61q10 3 19.5 4t18.5 1q32 0 61 -14.5t42 -45.5l14 52v0zM281 302v-4t-1 -3v-1v0q0 -2 -0.5 -4t-0.5 -3q0 -29 19 -46.5t42 -19.5h2.5h2.5h2h1q31 1 57.5 24t31.5 70
v6q0 28 -22 46t-48 19h-1.5h-1.5q-3 0 -6 -0.5t-6 -0.5q-24 -4 -44.5 -24t-26.5 -60v1z" />
    <glyph glyph-name="A" unicode="A" horiz-adv-x="595" 
d="M37 2v407q0 91 63 166.5t181 75.5h4h5q87 -3 160.5 -61t73.5 -190v-398h-201v185h-57v172h57v64q0 20 -13 30.5t-29 10.5t-29.5 -10.5t-13.5 -31.5v-420h-201v0z" />
    <glyph glyph-name="B" unicode="B" horiz-adv-x="595" 
d="M44 2v428q0 97 62 155.5t175 58.5l9 1q93 -1 147.5 -50.5t69.5 -108.5q2 -10 3.5 -20.5t1.5 -20.5q0 -31 -11 -57.5t-34 -43.5q42 -23 63.5 -64.5t23.5 -86.5v-5.5v-5.5q0 -68 -42.5 -124.5t-124.5 -56.5l-113 1v163q37 -1 54.5 12t19.5 29v1.5v1.5v3.5t-1 3.5
q-4 16 -22 29t-44 13l-7 1v135q18 -1 28.5 9.5t12.5 23.5q1 2 1 3.5v3.5v3.5t-1 3.5q-2 12 -10.5 22t-23.5 10q-27 0 -31.5 -22t-4.5 -65v-384h-201v0z" />
    <glyph glyph-name="C" unicode="C" horiz-adv-x="471" 
d="M446 2h-107q-153 -1 -231 96.5t-78 214.5v6v5q4 118 85 215.5t238 97.5l93 1v-187h-78q-64 -1 -97.5 -41.5t-34.5 -89.5v-1.5v-1.5v-4v-4q3 -49 38.5 -90t100.5 -41l71 1v-177v0z" />
    <glyph glyph-name="D" unicode="D" horiz-adv-x="613" 
d="M46 2v636h229q135 -1 218.5 -88.5t89.5 -227.5v-15q0 -139 -88.5 -222.5t-219.5 -83.5v186q38 -1 69 31.5t31 96.5q0 75 -37.5 105t-90.5 30v-448h-201v0z" />
    <glyph glyph-name="E" unicode="E" horiz-adv-x="492" 
d="M442 2h-113q-152 -1 -228 95.5t-76 212.5v7.5v6.5q5 117 85 215t233 98l99 1v-164h-64q-8 -1 -16 -1.5t-16 -2.5q-36 -6 -67.5 -26t-35.5 -51l199 1v-149h-199q1 -6 3.5 -12t5.5 -11q12 -19 35 -35t56 -16l99 1v-170v0z" />
    <glyph glyph-name="F" unicode="F" horiz-adv-x="432" 
d="M28 2v449q0 81 60 133.5t162 52.5l150 1v-178h-100q-48 -1 -59.5 -18.5t-11.5 -55.5l171 1v-165h-171v-220h-201v0z" />
    <glyph glyph-name="G" unicode="G" horiz-adv-x="737" 
d="M467 245h-144v156h366q0 -226 -98 -316t-232 -90h-10.5t-11.5 1q-118 6 -217 90.5t-99 232.5q0 3 0.5 6t0.5 6v1.5v1.5q1 2 1 5v5q11 145 105.5 219t205.5 83q8 0 16 0.5t16 0.5h9.5h8.5q68 -4 130.5 -29.5t101.5 -73.5l-135 -128q-15 14 -32.5 24t-35.5 16q-12 4 -24 6
t-23 2q-53 0 -94 -39.5t-41 -109.5q0 -57 39.5 -95t87.5 -42h4h4h5.5t5.5 1q26 2 51 18.5t39 46.5v1z" />
    <glyph glyph-name="H" unicode="H" horiz-adv-x="595" 
d="M37 2v636h201v-222h92v222h201v-636h-201v250h-92v-250h-201v0z" />
    <glyph glyph-name="I" unicode="I" horiz-adv-x="289" 
d="M28 2v636h201v-636h-201v0z" />
    <glyph glyph-name="J" unicode="J" horiz-adv-x="432" 
d="M14 2v185h71q53 -1 62 9t9 48v394h201v-444q0 -86 -58 -139.5t-150 -53.5l-135 1v0z" />
    <glyph glyph-name="K" unicode="K" horiz-adv-x="595" 
d="M44 2v636h201v-237l4 -1q9 -1 17 14.5t13 33.5q3 9 5.5 17t3.5 15l49 158h201l-50 -157q-1 -5 -2 -9t-2 -9q-11 -39 -27.5 -73t-40.5 -39q8 -1 16.5 -3.5t17.5 -5.5q28 -12 51 -39.5t23 -81.5v-219h-201v199q0 32 -17.5 42t-60.5 15v-256h-201v0z" />
    <glyph glyph-name="L" unicode="L" horiz-adv-x="410" 
d="M403 2h-186q-80 -1 -129 55t-49 136v445h194v-364q0 -50 10 -69t47 -19l113 1v-185v0z" />
    <glyph glyph-name="M" unicode="M" horiz-adv-x="797" 
d="M25 2l42 536q3 48 42.5 78t85.5 33h4.5h4.5h4h4q39 -2 74 -25.5t46 -72.5l50 -206l57 222q10 35 47.5 57t79.5 23h2h2h6h6q44 -4 81 -32.5t42 -91.5l43 -521h-194l-21 371l-78 -329q-4 -23 -20.5 -35.5t-35.5 -16.5q-4 0 -7.5 -0.5t-6.5 -0.5h-4.5t-4.5 1q-17 2 -32.5 13
t-18.5 31l-85 337l-23 -371h-192v0z" />
    <glyph glyph-name="N" unicode="N" horiz-adv-x="634" 
d="M43 2v536q0 50 33.5 78t76.5 28q6 0 12.5 -0.5t13.5 -2.5q27 -6 52.5 -24.5t40.5 -50.5l99 -207v279h201v-537q0 -59 -32.5 -87t-72.5 -28q-5 0 -10 0.5t-10 1.5q-28 5 -54.5 22.5t-42.5 47.5l-107 201v-257h-200v0z" />
    <glyph glyph-name="O" unicode="O" horiz-adv-x="737" 
d="M30 323q0 14 1.5 29t4.5 30q20 96 102 175.5t221 79.5q151 0 236 -89t85 -240q0 -145 -95 -236.5t-219 -91.5q-134 0 -235 96t-101 246v1zM238 309q0 -59 36.5 -91t84.5 -32q5 0 9.5 0.5t9.5 0.5q39 6 71 34.5t32 86.5q0 59 -34 90.5t-75 35.5h-5.5h-5.5h-1.5h-1.5
q-45 -1 -82.5 -33t-37.5 -93v1z" />
    <glyph glyph-name="P" unicode="P" horiz-adv-x="531" 
d="M41 2v435q0 17 4.5 38t13.5 43q21 51 69.5 93.5t127.5 46.5l16 1q91 -1 164 -58t77 -165v-19v-7.5v-7.5q-4 -79 -58.5 -145t-177.5 -66q-1 0 -3 0.5t-4 0.5t-4 0.5t-3 0.5v180q1 -1 2 -1.5t2 -0.5l1 -0.5t2 -0.5q25 0 39 14.5t16 32.5v2.5v2.5v2.5v2.5q-2 15 -12 27
t-29 12q-31 0 -40.5 -18.5t-9.5 -61.5v-384h-193v0z" />
    <glyph glyph-name="Q" unicode="Q" horiz-adv-x="737" 
d="M259 2q-14 4 -29 11t-30 16q-67 40 -123 117t-56 171q0 1 0.5 2.5t0.5 3.5t0.5 3.5t0.5 2.5q11 140 103.5 231t232.5 91q15 0 31 -1.5t31 -4.5q101 -19 184.5 -96.5t83.5 -212.5q0 -145 -71 -221t-174 -114v-84h-156v357h149v-52q21 13 33.5 39t14.5 55v4.5v5.5v5.5v5.5
q-4 42 -35.5 77.5t-88.5 35.5l-9 1q-52 -1 -83.5 -38.5t-35.5 -81.5v-5.5v-5.5q0 -5 0.5 -10.5t1.5 -11.5q3 -14 9 -28.5t15 -25.5v-242v0z" />
    <glyph glyph-name="R" unicode="R" horiz-adv-x="552" 
d="M37 2v421q0 133 70 180.5t167 47.5q103 0 157.5 -52t67.5 -114q2 -10 3 -20t1 -20q0 -39 -15.5 -72.5t-43.5 -50.5q33 -10 53 -41.5t20 -80.5v-198h-201v156q0 41 -11.5 52.5t-32.5 16.5q-3 1 -6.5 1.5t-6.5 1.5v150q1 -1 2 -1h2t2.5 -0.5t2.5 -0.5q2 0 4 -0.5t3 -0.5
q27 0 38.5 12.5t11.5 28.5q0 3 -0.5 5.5t-0.5 5.5q-4 16 -17.5 30t-32.5 14q-27 0 -35 -22t-8 -65v-384h-194v0z" />
    <glyph glyph-name="S" unicode="S" horiz-adv-x="453" 
d="M11 2v185h142q4 -1 8.5 -0.5t9.5 1.5q15 2 27 9t12 17q0 4 -4 10.5t-12 13.5q-1 2 -2.5 3.5t-3.5 2.5q-12 8 -23.5 16.5t-21.5 17.5q-58 44 -95 91t-37 111q0 1 -0.5 2t-0.5 3q0 1 -0.5 2t-0.5 2q0 60 37 91t81 44q25 8 49 10.5t41 2.5l193 1v-171h-135q-22 -1 -35.5 -8
t-13.5 -16q0 -4 3.5 -10t10.5 -12q1 -1 3 -2.5t4 -3.5q5 -4 10.5 -8t11.5 -8q3 -3 6.5 -5.5t6.5 -4.5q55 -41 100 -86t50 -110v-21q0 -86 -64.5 -126.5t-141.5 -44.5h-8h-8l-199 1v0z" />
    <glyph glyph-name="T" unicode="T" horiz-adv-x="410" 
d="M89 2v458h-107v178h414v-178h-106v-458h-201v0z" />
    <glyph glyph-name="U" unicode="U" horiz-adv-x="595" 
d="M30 638h201v-423q0 -22 13.5 -33t29.5 -11t29 11t13 32v424h201v-423q0 -102 -60.5 -164.5t-182.5 -62.5q-119 0 -181.5 70.5t-62.5 155.5v424v0z" />
    <glyph glyph-name="V" unicode="V" horiz-adv-x="552" 
d="M2 638h199l65 -386l64 386h208l-129 -565q-2 -8 -6.5 -17t-12.5 -18q-16 -19 -46.5 -34.5t-77.5 -15.5q-10 0 -20 1t-20 3q-37 8 -68 29t-35 58l-121 559v0z" />
    <glyph glyph-name="W" unicode="W" horiz-adv-x="836" 
d="M37 638h201v-423q0 -25 11.5 -37t24.5 -12h1.5h1.5q12 1 22 13t10 35v424h201v-416q0 -27 12 -41.5t27 -14.5h3.5t3.5 1q12 3 22 15t10 32v424h201v-444q0 -88 -61 -140.5t-134 -62.5q-9 -2 -18 -2.5t-18 -0.5q-43 0 -80.5 15.5t-61.5 47.5q-27 -31 -67 -45.5t-83 -14.5
q-6 0 -11.5 0.5t-11.5 0.5q-77 7 -141.5 60.5t-64.5 147.5v438v0z" />
    <glyph glyph-name="X" unicode="X" horiz-adv-x="595" 
d="M30 2v177q3 -1 6 -1.5t6 -0.5q3 -1 5.5 -1.5t5.5 -0.5q8 0 16.5 1t17.5 3q40 11 73.5 43t33.5 83v11q-4 62 -43.5 90t-85.5 35q-9 1 -18 1.5t-17 0.5v195h57q2 -1 4 -1h5q54 -3 104 -30.5t76 -59.5q4 -5 7 -9t5 -8q17 32 45 53t57 34q26 10 49.5 15t41.5 5l57 1v-194h-16
q-60 -1 -92 -30.5t-40 -64.5q-1 -7 -2 -13.5t-1 -13.5q0 -76 37.5 -107t113.5 -37v-176h-71q-46 -1 -75.5 7.5t-56.5 30.5q-11 9 -22.5 20.5t-24.5 25.5q-9 -10 -17.5 -18.5t-17.5 -16.5q-33 -28 -68 -39t-77 -11l-78 1v0z" />
    <glyph glyph-name="Y" unicode="Y" horiz-adv-x="513" 
d="M146 2v213q-48 4 -88 48t-40 102v273h199v-237q0 -17 9 -25t19 -8h2.5h2.5q9 2 17 10t8 22v238h201v-258q0 -70 -38.5 -112t-91.5 -54v-212h-200v0z" />
    <glyph glyph-name="Z" unicode="Z" horiz-adv-x="492" 
d="M229 444h-201v194h301q65 -1 97.5 -36t39.5 -78q2 -7 2.5 -14t0.5 -14q0 -19 -4 -37t-14 -30l-208 -250h229v-177h-351q-67 -1 -95.5 33.5t-29.5 75.5v1.5v1.5v7.5t1 6.5q2 20 8 39t16 33l208 244v0z" />
    <glyph glyph-name="bracketleft" unicode="[" horiz-adv-x="350" 
d="M73 -155v851h236v-115h-78v-622h78v-114h-236v0z" />
    <glyph glyph-name="backslash" unicode="\" horiz-adv-x="247" 
d="M185 -5l-270 657h128l271 -657h-129v0z" />
    <glyph glyph-name="bracketright" unicode="]" horiz-adv-x="350" 
d="M108 -41v629h-78v115h229v-850h-229v106h78v0z" />
    <glyph glyph-name="asciicircum" unicode="^" horiz-adv-x="458" 
 />
    <glyph glyph-name="underscore" unicode="_" horiz-adv-x="453" 
d="M-11 -105v50h457v-50h-457v0z" />
    <glyph glyph-name="grave" unicode="`" horiz-adv-x="289" 
d="M21 423l93 215h108l-51 -215h-150v0z" />
    <glyph glyph-name="a" unicode="a" horiz-adv-x="552" 
d="M316 179v-177q-5 -2 -11 -2h-11q-10 -1 -19 -1.5t-17 -0.5q-101 0 -168 62t-67 170q0 117 74 176.5t177 59.5q115 0 179 -69.5t75 -153.5q2 -9 2.5 -18t0.5 -18v-205h-186v229q0 32 -20 48t-45 18h-2.5h-2.5h-1.5h-1.5q-24 -1 -44 -16.5t-20 -43.5q0 -31 17 -52t43 -21
q7 0 15 2t16 5q5 1 9 3l8 4v1z" />
    <glyph glyph-name="b" unicode="b" horiz-adv-x="552" 
d="M30 645h185v-400q0 -41 19 -60t41 -19q3 0 6.5 0.5t6.5 0.5q22 5 39.5 22t17.5 41v8q-3 27 -21 41t-39 17q-3 1 -6.5 1h-6.5t-6 -0.5t-6 -0.5q-8 -1 -15.5 -3.5t-13.5 -5.5v187h35q116 -1 183.5 -61.5t67.5 -168.5q-5 -130 -76.5 -189t-156.5 -66q-6 -1 -12.5 -1h-12.5
q-102 0 -165.5 72.5t-63.5 254.5v330v0z" />
    <glyph glyph-name="c" unicode="c" horiz-adv-x="389" 
d="M350 2h-85q-124 -1 -186.5 70t-62.5 156v5.5v5.5q4 85 68.5 156t187.5 71l78 1v-165h-85q-27 -1 -44 -21t-20 -43v-4v-4v-2.5v-2.5q2 -23 18.5 -42t45.5 -19l85 1v-163v0z" />
    <glyph glyph-name="d" unicode="d" horiz-adv-x="552" 
d="M330 645h180v-371q0 -131 -55 -208.5t-189 -77.5q-98 0 -168 69.5t-70 172.5q0 1 0.5 3t0.5 4t0.5 4t0.5 3q5 113 67 169.5t159 56.5q9 0 19 -0.5t20 -2.5q4 0 7.5 -0.5t6.5 -0.5v-171h-6.5t-6.5 1q-6 0 -11.5 0.5t-9.5 0.5q-36 0 -55 -20t-19 -56q0 -26 18 -41.5
t40 -15.5h4h4q23 3 43 21.5t20 51.5v408v0z" />
    <glyph glyph-name="e" unicode="e" horiz-adv-x="552" 
d="M503 295l-229 -130l-52 94l87 50q-6 5 -13.5 10t-15.5 7q-3 1 -6 1.5t-6 0.5q-2 0 -4.5 -0.5t-5.5 -0.5q-24 -5 -44 -30.5t-20 -59.5q0 -46 25.5 -72.5t62.5 -26.5q14 0 30 4.5t32 12.5q15 8 29.5 19t27.5 26l102 -99q-34 -50 -91 -79t-119 -35q-7 0 -13.5 -0.5
t-13.5 -0.5q-86 0 -158.5 54t-77.5 174q0 1 -0.5 2.5t-0.5 3.5t-0.5 3.5t-0.5 2.5q0 103 57 161t125 73q12 3 24.5 4.5t24.5 1.5q107 0 162 -51.5t82 -120.5v1z" />
    <glyph glyph-name="f" unicode="f" horiz-adv-x="350" 
d="M30 2v465q0 85 50 131t114 46l129 1v-149h-64q-20 -1 -29.5 -8.5t-12.5 -16.5q-1 -3 -1.5 -6t-0.5 -6l108 1v-165h-108v-293h-185v0z" />
    <glyph glyph-name="g" unicode="g" horiz-adv-x="552" 
d="M302 179v-163q-10 -5 -21.5 -9t-23.5 -6q-6 -1 -12 -1h-12q-9 0 -17.5 0.5t-17.5 2.5q-63 12 -115.5 71t-52.5 163q0 86 57 155t187 74q90 0 163 -65.5t73 -156.5v-228q0 -119 -78.5 -162.5t-173.5 -43.5h-13.5t-13.5 1q-43 2 -84.5 9.5t-73.5 17.5v150q10 -2 19.5 -4.5
t19.5 -4.5q32 -7 63.5 -11.5t57.5 -4.5q41 0 69 15.5t28 57.5v186q0 31 -17.5 48t-39.5 19h-2.5h-2.5q-22 0 -41 -15.5t-19 -43.5q0 -31 14.5 -46.5t36.5 -15.5q6 0 12.5 1t13.5 3q4 2 8.5 3.5t8.5 2.5v1z" />
    <glyph glyph-name="h" unicode="h" horiz-adv-x="513" 
d="M25 2v636h185v-208q20 14 43 22.5t46 10.5q4 1 7.5 1h6.5q59 0 107.5 -44.5t48.5 -132.5v-285h-187v264q0 16 -9 26t-19 12q-2 1 -3.5 1h-3.5h-1.5h-1.5q-13 -1 -23.5 -11.5t-10.5 -28.5v-263h-185v0z" />
    <glyph glyph-name="i" unicode="i" horiz-adv-x="247" 
d="M21 2v449h192v-449h-192v0zM14 602q0 47 32 73.5t75 26.5q5 0 9.5 -0.5t8.5 -1.5q34 -5 62 -31t28 -68v-6q0 -49 -32 -75.5t-70 -28.5h-3.5h-2.5q-40 0 -73.5 27.5t-33.5 82.5v1z" />
    <glyph glyph-name="j" unicode="j" horiz-adv-x="268" 
d="M46 451h187v-414q0 -112 -50.5 -166t-136.5 -54h-99v163h64q21 0 28 12.5t7 43.5v415v0zM32 602q0 47 32 73.5t75 26.5q5 0 10.5 -0.5t11.5 -1.5q32 -7 59 -32.5t27 -66.5v-6q0 -49 -32 -75.5t-70 -28.5h-3.5h-2.5q-40 0 -73.5 27.5t-33.5 82.5v1z" />
    <glyph glyph-name="k" unicode="k" horiz-adv-x="513" 
d="M25 2v636h185v-322l3 -2q19 -1 31.5 27t22.5 62q2 5 3.5 11t3.5 12l4 12l4 12l187 1q-10 -25 -17 -46t-14 -40q-13 -36 -29.5 -62.5t-47.5 -44.5q42 -16 71.5 -46t29.5 -126v-84h-187v135q0 20 -16 27t-49 7v-169h-185v0z" />
    <glyph glyph-name="l" unicode="l" horiz-adv-x="247" 
d="M21 2v636h192v-636h-192v0z" />
    <glyph glyph-name="m" unicode="m" horiz-adv-x="737" 
d="M274 2v257q0 19 -9 30t-19 12h-1.5h-1.5h-3.5t-3.5 -1q-10 -3 -19 -14.5t-9 -27.5v-256h-185v272q0 95 55.5 140t122.5 49q4 1 8 1h8q47 0 88.5 -17.5t60.5 -46.5q23 25 58 40.5t72 19.5q6 0 11.5 0.5t11.5 0.5q69 0 126.5 -43t57.5 -138v-278h-186v264q0 16 -7.5 25
t-16.5 10h-1.5h-1.5h-2.5t-2.5 -1q-9 -2 -17 -14t-8 -35v-249h-186v0z" />
    <glyph glyph-name="n" unicode="n" horiz-adv-x="492" 
d="M21 2v286q0 84 67 126.5t148 42.5h5.5h5.5q79 -3 145 -47t66 -130v-278h-193v264q0 13 -6.5 20.5t-14.5 9.5q-1 1 -2.5 1h-3.5t-4 -0.5t-4 -0.5q-9 -3 -16.5 -11.5t-7.5 -19.5v-263h-185v0z" />
    <glyph glyph-name="o" unicode="o" horiz-adv-x="552" 
d="M37 231q0 95 66 165t163 70q112 0 177.5 -70.5t66.5 -155.5v-1.5v-1.5q0 -117 -74.5 -182t-163.5 -67h-3.5h-2.5q-16 0 -34 3t-36 9q-60 21 -109.5 78t-49.5 152v1zM215 231q0 -28 17.5 -43.5t38.5 -16.5h1.5h1.5q21 0 38.5 15.5t17.5 43.5q0 24 -14.5 37.5t-32.5 16.5
q-2 1 -4.5 1h-4.5h-1.5h-1.5q-21 -1 -38.5 -15.5t-17.5 -39.5v1z" />
    <glyph glyph-name="p" unicode="p" horiz-adv-x="552" 
d="M30 -183v414q0 111 71.5 174t157.5 68q123 0 187 -74.5t64 -177.5q0 -18 -3 -38.5t-9 -41.5q-17 -57 -65.5 -103.5t-142.5 -46.5q-8 0 -16.5 0.5t-16.5 1.5q-7 0 -13.5 0.5t-12.5 1.5v184q5 -4 10.5 -6.5t11.5 -4.5t11.5 -3t10.5 -1q26 0 44 17.5t18 48.5
q0 30 -18.5 46.5t-40.5 19.5h-4h-4h-2.5h-2.5q-22 -2 -39.5 -18.5t-17.5 -47.5v-413h-178v0z" />
    <glyph glyph-name="q" unicode="q" horiz-adv-x="552" 
d="M309 179v-184q-5 -1 -10.5 -1t-11.5 -1h-14.5h-13.5q-100 0 -165.5 58t-65.5 170q0 2 0.5 4t0.5 4t0.5 4.5t0.5 3.5q5 116 77.5 174.5t158.5 58.5h6.5h7.5q89 -5 163 -72t74 -198v-383h-187v405q0 35 -19.5 53t-42.5 19h-1.5h-1.5q-24 0 -44 -16.5t-20 -47.5
q0 -33 19 -49.5t43 -16.5q5 0 10 1l10 2q7 2 14 5t12 6v1z" />
    <glyph glyph-name="r" unicode="r" horiz-adv-x="389" 
d="M21 2v449h171v-57q20 24 41 38.5t42 22.5q24 8 48.5 9.5t47.5 1.5v-157q-5 -1 -11 -1h-11q-54 -2 -98.5 -22t-44.5 -93v-191h-185v0z" />
    <glyph glyph-name="s" unicode="s" horiz-adv-x="410" 
d="M25 2v156h121q12 -1 18.5 2.5t6.5 7.5t-5 9.5t-14 12.5q-5 2 -10 5t-11 5q-48 16 -77 47t-29 89q0 43 24 68t52 36q14 5 27.5 7.5t24.5 2.5l200 1v-142h-92q-12 -1 -22 -4.5t-10 -10.5q0 -3 5 -9t16 -13q2 -2 5 -3.5t6 -3.5t5.5 -3.5t5.5 -2.5q35 -19 63 -45t33 -85
q0 -58 -31 -93t-111 -35l-201 1v0z" />
    <glyph glyph-name="t" unicode="t" horiz-adv-x="350" 
d="M23 595h192v-144h94v-156h-94v-94q0 -23 8 -33.5t36 -10.5l50 1v-156h-101q-104 -1 -142.5 48.5t-41.5 109.5q-1 4 -1 8.5v9.5v417v0z" />
    <glyph glyph-name="u" unicode="u" horiz-adv-x="492" 
d="M21 451h185v-257q0 -17 7.5 -26.5t16.5 -10.5h1.5h1.5q2 0 4 0.5t4 0.5q9 3 16.5 12.5t7.5 22.5v258h186v-264q0 -94 -65.5 -144t-143.5 -54h-5.5h-5.5q-79 0 -144.5 49t-65.5 148v265v0z" />
    <glyph glyph-name="v" unicode="v" horiz-adv-x="492" 
d="M0 451h178l51 -272l50 272h179l-101 -385q-7 -30 -41.5 -47.5t-73.5 -19.5q-5 -1 -9.5 -1h-8.5h-3.5h-3.5q-41 1 -76.5 19t-41.5 55l-99 379v0z" />
    <glyph glyph-name="w" unicode="w" horiz-adv-x="737" 
d="M23 451h185v-272q0 -14 9 -20.5t19 -6.5h2.5h2.5q9 2 17 8.5t8 17.5v273h187v-257q0 -23 10 -33.5t22 -10.5t22 10.5t10 32.5v258h179v-286q0 -82 -52.5 -122t-115.5 -46q-8 -1 -15.5 -1.5t-15.5 -0.5q-45 0 -83.5 14.5t-54.5 41.5q-16 -28 -52.5 -44t-77.5 -18h-4.5
h-4.5q-6 0 -11.5 0.5t-11.5 0.5q-65 7 -119.5 52.5t-54.5 135.5v273v0z" />
    <glyph glyph-name="x" unicode="x" horiz-adv-x="453" 
d="M25 2v156h57q25 -1 38 18t13 43v4v4q-2 25 -18.5 46t-47.5 21l-42 1v149q3 -1 6 -1h5q5 0 9 0.5t9 0.5q7 0 13.5 0.5t12.5 0.5q50 0 87 -11.5t66 -40.5q25 29 55.5 40.5t75.5 11.5q5 0 11.5 -0.5t13.5 -0.5h3.5h3.5q5 -1 10.5 -1h10.5v-148h-49q-27 -1 -41 -20t-16 -42
v-4v-4q0 -25 13 -46.5t37 -21.5l56 1v-156q-4 -1 -8.5 -1t-9.5 -1h-4h-5h-12.5h-11.5q-29 0 -49 2.5t-38 12.5q-12 6 -25 16.5t-28 26.5q-16 -16 -29.5 -26.5t-26.5 -16.5q-19 -10 -40 -12.5t-52 -2.5h-11.5h-13.5q-5 0 -10 0.5t-10 0.5h-4h-4v1z" />
    <glyph glyph-name="y" unicode="y" horiz-adv-x="492" 
d="M142 -5q-53 36 -90.5 79.5t-37.5 118.5v258h185v-257q0 -20 10 -29.5t22 -9.5h2.5h2.5q11 2 20 11.5t9 26.5v258h177v-272q0 -70 -31 -114.5t-90 -69.5v-178h-179v178v0z" />
    <glyph glyph-name="z" unicode="z" horiz-adv-x="471" 
d="M432 2h-301q-61 -1 -89 26t-28 62q0 7 1.5 14t3.5 14q4 13 11 25t16 21l142 138h-142v149h244q69 -1 102.5 -25t42.5 -53q2 -7 3 -13.5t1 -12.5q0 -17 -6 -31.5t-16 -21.5l-149 -143h164v-149v0z" />
    <glyph glyph-name="braceleft" unicode="{" horiz-adv-x="350" 
d="M2 323q48 -1 66.5 13.5t18.5 35.5v223q0 34 27 63t59 39q7 3 14 4t14 1l101 1v-80q-32 -1 -48 -12.5t-16 -37.5v-193q0 -50 -16.5 -68t-52.5 -29q-7 -3 -15 -5t-17 -5q65 -6 83 -26.5t18 -75.5v-176q0 -32 7.5 -48t36.5 -16h20v-86h-87q-53 0 -90.5 37.5t-37.5 112.5v156
q0 42 -16 57t-69 22v93v0z" />
    <glyph glyph-name="bar" unicode="|" horiz-adv-x="208" 
d="M23 2v636h128v-636h-128v0z" />
    <glyph glyph-name="braceright" unicode="}" horiz-adv-x="350" 
d="M194 274q-48 4 -70.5 27t-22.5 71v188q0 41 -13 51.5t-51 10.5v88h64q75 -1 113 -40.5t38 -103.5v-179q0 -48 25.5 -60t56.5 -12h1.5h1.5v-84q-1 -1 -1.5 -1h-1.5q-31 -1 -56.5 -13.5t-25.5 -38.5v-198q0 -50 -26 -81t-57 -44q-12 -5 -24 -7.5t-22 -2.5h-86v93
q3 0 6.5 -0.5t6.5 -0.5t5.5 -0.5t4.5 -0.5q22 0 31.5 15t9.5 57v179q0 42 24 58t65 27q1 0 2 0.5t2 0.5v1z" />
    <glyph glyph-name="asciitilde" unicode="~" horiz-adv-x="458" 
 />
    <glyph glyph-name="glyph98" unicode="&#xa1;" horiz-adv-x="458" 
 />
    <glyph glyph-name="cent" unicode="&#xa2;" horiz-adv-x="471" 
d="M146 231h165v-172h-64q-27 -1 -39.5 -11t-12.5 -22q0 -13 11.5 -24t27.5 -11q5 0 10 1.5t10 4.5q8 3 15.5 11t12.5 21l173 -70q-29 -71 -81 -104.5t-108 -40.5q-8 -1 -16.5 -1.5t-16.5 -0.5q-58 0 -109.5 22t-77.5 54q-17 21 -28 46t-15 51q-2 8 -2.5 15t-0.5 15
q0 60 37 112.5t109 65.5v38v0zM124 366q0 47 32.5 73.5t76.5 26.5q5 0 9.5 -0.5t8.5 -1.5q33 -6 60.5 -31.5t27.5 -67.5v-6q0 -50 -32 -77t-70 -29h-3.5h-2.5h-1.5h-1.5q-39 1 -71.5 29.5t-32.5 82.5v1z" />
    <glyph glyph-name="sterling" unicode="&#xa3;" horiz-adv-x="492" 
d="M114 231l-114 114h142l116 -114l-116 -116h-142l114 116v0zM307 231l-115 114h144l115 -114l-115 -116h-144l115 116v0z" />
    <glyph glyph-name="Idieresis" unicode="&#xa4;" horiz-adv-x="311" 
d="M-4 394v251h121v-251h-121v0zM167 394v251h123v-251h-123v0z" />
    <glyph glyph-name="ae" unicode="&#xa5;" horiz-adv-x="458" 
 />
    <glyph glyph-name="brokenbar" unicode="&#xa6;" 
 />
    <glyph glyph-name="section" unicode="&#xa7;" horiz-adv-x="458" 
 />
    <glyph glyph-name="dieresis" unicode="&#xa8;" 
 />
    <glyph glyph-name="copyright" unicode="&#xa9;" horiz-adv-x="552" 
d="M73 451l-50 52l64 64l50 -50q24 15 57 24t67 9q8 0 16 -0.5t17 -1.5q24 -3 48 -11t45 -21l50 51l66 -64l-50 -52q17 -20 28 -56t11 -75q0 -11 -1 -23t-4 -24q-4 -21 -12.5 -41t-21.5 -39l50 -49l-66 -64l-50 50q-18 -13 -39.5 -21.5t-44.5 -12.5q-9 -1 -18.5 -2t-18.5 -1
h-8t-9 1q-29 2 -56.5 11.5t-48.5 23.5l-50 -49l-64 64l50 50q-14 20 -25 47t-15 55q-2 9 -2.5 17.5t-0.5 17.5v4.5v5.5q2 30 11 58.5t25 50.5v1zM259 430q-43 -1 -69 -29.5t-31 -61.5q0 -5 -0.5 -9t-0.5 -8q0 -43 27 -75.5t81 -32.5q53 0 78 32t25 71v7.5t-1 7.5
q-5 36 -33 66.5t-76 30.5v1z" />
    <glyph glyph-name="ellipsis" unicode="&#xaa;" horiz-adv-x="552" 
d="M108 59q-36 24 -56 69.5t-20 96.5q0 8 0.5 16t1.5 16q10 79 67 145t165 66q13 0 28.5 -1t30.5 -3q7 -1 13.5 -2t13.5 -3l35 58h116l-66 -108q24 -25 40.5 -51t25.5 -52q6 -19 9 -37t3 -36q0 -95 -72 -168.5t-164 -73.5q-9 0 -19 1l-20 2q-12 2 -23.5 5.5t-22.5 8.5
l-36 -63h-121l71 114v0zM215 231q0 -28 17.5 -43.5t38.5 -16.5h1.5h1.5q21 0 38.5 15.5t17.5 43.5q0 24 -14.5 37.5t-32.5 16.5q-2 1 -4.5 1h-4.5h-1.5h-1.5q-21 -1 -38.5 -15.5t-17.5 -39.5v1z" />
    <glyph glyph-name="ydieresis" unicode="&#xab;" horiz-adv-x="655" 
d="M82 2v293h-50v149h50v37q0 3 0.5 7t0.5 8q7 55 62.5 101.5t151.5 46.5t156.5 -49.5t65.5 -109.5v-4v-4q0 -4 -0.5 -8.5t-0.5 -9.5q-4 -19 -14.5 -38.5t-27.5 -34.5q11 -7 21 -13.5t19 -13.5q41 -29 66 -63t29 -96v-13q0 -76 -51.5 -131t-134.5 -55l-135 1v156
q14 -3 27.5 -4.5t23.5 -1.5q39 0 58.5 13t19.5 33q0 12 -6.5 26t-19.5 28q-10 11 -23.5 21.5t-30.5 20.5q-19 11 -29 23t-10 25q0 12 9 29t23 37q2 3 3.5 5.5t3.5 5.5q4 8 5.5 15.5t1.5 13.5q0 16 -10 28t-23 17q-2 1 -5 1.5t-6 0.5q-13 0 -23.5 -11t-10.5 -34v-448h-186v0z
" />
    <glyph glyph-name="emdash" unicode="&#xac;" 
 />
    <glyph glyph-name="uni00AD" unicode="&#xad;" 
 />
    <glyph glyph-name="registered" unicode="&#xae;" horiz-adv-x="289" 
d="M43 423l49 222h144l-87 -222h-106v0z" />
    <glyph glyph-name="glyph263" unicode="&#xaf;" 
 />
    <glyph glyph-name="glyph264" unicode="&#xb0;" 
 />
    <glyph glyph-name="mu" unicode="&#xb1;" 
 />
    <glyph glyph-name="uni00B2" unicode="&#xb2;" 
 />
    <glyph glyph-name="uni00B3" unicode="&#xb3;" 
 />
    <glyph glyph-name="acute" unicode="&#xb4;" 
 />
    <glyph glyph-name="oslash" unicode="&#xb5;" 
 />
    <glyph glyph-name="paragraph" unicode="&#xb6;" 
 />
    <glyph glyph-name="glyph265" unicode="&#xb7;" 
 />
    <glyph glyph-name="glyph121" unicode="&#xb8;" 
 />
    <glyph glyph-name="uni00B9" unicode="&#xb9;" 
 />
    <glyph glyph-name="Agrave" unicode="&#xba;" horiz-adv-x="458" 
 />
    <glyph glyph-name="Ydieresis" unicode="&#xbb;" 
 />
    <glyph glyph-name="onequarter" unicode="&#xbc;" 
 />
    <glyph glyph-name="glyph243" unicode="&#xbd;" 
 />
    <glyph glyph-name="threequarters" unicode="&#xbe;" 
 />
    <glyph glyph-name="oe" unicode="&#xbf;" horiz-adv-x="458" 
 />
    <glyph glyph-name="currency" unicode="&#xc0;" horiz-adv-x="311" 
d="M46 -183l21 405h159l21 -405h-201v0zM39 359q0 47 32 73.5t75 26.5q5 0 10.5 -0.5t11.5 -1.5q32 -7 59 -32.5t27 -66.5v-6q0 -50 -32 -77t-70 -29h-3.5h-2.5q-40 0 -73.5 28.5t-33.5 83.5v1z" />
    <glyph glyph-name="breve" unicode="&#xc1;" 
 />
    <glyph glyph-name="tilde" unicode="&#xc2;" horiz-adv-x="552" 
d="M281 2q-92 18 -138 79.5t-49 131.5v4v4v3.5v3.5q2 75 51 140t136 75v81h78v-73h78v-156h-64q-42 -1 -64.5 -22t-26.5 -46v-4v-4v-4t1 -4q3 -23 23 -42t53 -19l78 1v-156h-78v-57h-78v64v0z" />
    <glyph glyph-name="guilsinglleft" unicode="&#xc3;" horiz-adv-x="797" 
d="M39 2v399q0 127 73 189.5t163 62.5q10 0 19.5 -0.5t18.5 -2.5q41 -6 80 -23.5t69 -46.5q48 38 96 51t96 13l94 1v-171h-64q-60 -1 -91.5 -18.5t-52.5 -55.5l208 1v-149h-208q11 -39 44.5 -60t76.5 -21l87 1v-170h-94q-53 -1 -87 8.5t-55 25.5v-34h-187v250h-85v-250h-201
v0zM325 401v3t1 5v0.5v0.5q0 3 0.5 5.5t0.5 4.5q0 23 -11.5 38t-33.5 15q-26 0 -37.5 -20.5t-11.5 -52.5l92 1v0z" />
    <glyph glyph-name="Adieresis" unicode="&#xc4;" 
 />
    <glyph glyph-name="Aring" unicode="&#xc5;" horiz-adv-x="458" 
 />
    <glyph glyph-name="Oslash" unicode="&#xc6;" 
 />
    <glyph glyph-name="Ccedilla" unicode="&#xc7;" horiz-adv-x="453" 
d="M60 323q0 78 48 117t106 40h1.5h1.5q60 0 109 -39t49 -119q0 -78 -46.5 -120t-102.5 -45h-4h-4h-2.5h-3.5q-57 2 -104.5 44.5t-47.5 120.5v1z" />
    <glyph glyph-name="ring" unicode="&#xc8;" horiz-adv-x="552" 
d="M80 252h-85v135h85v80q0 79 56 128t168 49q15 0 33 -1t37 -3q6 0 13 -1l14 -2v-186q-5 0 -10.5 1.5t-11.5 2.5q-14 4 -28.5 6t-25.5 2q-25 0 -42 -9t-17 -25v-42h86v-135h-86q0 -33 -4 -51t-27 -34q-1 -1 -2 -1.5t-2 -1.5q9 1 17 1.5t15 1.5q42 3 63.5 13t25.5 57l165 1
q0 -19 -1.5 -38.5t-5.5 -39.5q-12 -60 -51.5 -109.5t-128.5 -49.5l-342 1v163h42q38 -1 44 23.5t6 62.5v1z" />
    <glyph glyph-name="Eacute" unicode="&#xc9;" 
 />
    <glyph glyph-name="macron" unicode="&#xca;" horiz-adv-x="458" 
 />
    <glyph glyph-name="dotaccent" unicode="&#xcb;" horiz-adv-x="552" 
d="M165 2v142h-121v101h121v50h-121v106h100q-22 31 -54.5 44.5t-80.5 13.5v179h85q49 -1 80 -15.5t58 -38.5q8 -8 16.5 -16t17.5 -17q27 32 66.5 59t97.5 27l87 1v-178q-2 -1 -3.5 -1h-3.5q-35 -1 -68.5 -14.5t-54.5 -44.5l101 1v-106h-122v-50h122v-101h-122v-142h-201v0z
" />
    <glyph glyph-name="caron" unicode="&#xcc;" 
 />
    <glyph glyph-name="cedilla" unicode="&#xcd;" 
 />
    <glyph glyph-name="hungarumlaut" unicode="&#xce;" horiz-adv-x="458" 
 />
    <glyph glyph-name="ogonek" unicode="&#xcf;" horiz-adv-x="552" 
d="M108 359q-29 18 -45 49t-17 65v2.5v3.5v5.5v5.5q2 26 13 51t28 39q44 40 101 53t146 13q14 0 29.5 -0.5t32.5 -0.5q16 0 34 -0.5t37 -0.5v-177q-10 0 -21 1.5t-22 3.5h-2.5h-3.5q-18 3 -36 5t-32 2q-17 0 -29 -4.5t-12 -15.5q0 -8 6 -15.5t16 -14.5q15 -10 36 -21t43 -24
q35 -21 65 -50.5t35 -75.5v-16q0 -53 -24.5 -91.5t-55.5 -57.5q28 -18 41.5 -47t16.5 -59v-6v-6v-9.5t-1 -8.5q-2 -22 -9 -42t-18 -34q-37 -44 -104 -58.5t-141 -14.5q-14 0 -28.5 0.5t-29.5 0.5q-21 1 -43 2.5t-43 3.5q-7 0 -13.5 0.5t-13.5 1.5v178q3 -1 6.5 -1.5
t7.5 -0.5q10 -2 20.5 -3.5t21.5 -3.5q20 -2 39 -4t35 -2q24 0 40.5 5t16.5 16q0 5 -4 9.5t-10 9.5q-15 9 -39.5 19.5t-50.5 25.5q-39 21 -71.5 56t-32.5 93q0 42 18.5 73.5t40.5 50.5q7 6 13.5 11t12.5 9v1zM295 194q1 0 2 2t2 5q0 1 0.5 3t0.5 3q0 3 -1 6.5t-2 7.5
q-3 6 -6.5 11t-7.5 9q0 1 -0.5 1.5l-1.5 1.5q-5 5 -11.5 8.5t-14.5 5.5q-3 1 -6 1.5t-6 0.5h-2.5h-3.5t-3.5 -0.5t-2.5 -1.5l-1 -0.5t-1 -1.5q-2 -2 -4 -4.5t-2 -5.5q-1 -1 -1 -2v-2q0 -4 2 -9.5t6 -10.5q5 -8 13 -15.5t16 -12.5q6 -4 11.5 -6t10.5 -2h2t3 1q3 1 5.5 2.5
t3.5 3.5v1z" />
    <glyph glyph-name="glyph232" unicode="&#xd0;" 
 />
    <glyph glyph-name="Ntilde" unicode="&#xd1;" horiz-adv-x="574" 
d="M211 323q-12 -1 -24 -0.5t-24 2.5q-57 7 -104.5 40.5t-47.5 114.5v3.5t1 4.5v4v3q0 85 65.5 117t156.5 32l294 1v-814h-116v729h-85v-729h-116v492v0z" />
    <glyph glyph-name="scaron" unicode="&#xd2;" horiz-adv-x="458" 
 />
    <glyph glyph-name="Lslash" unicode="&#xd3;" 
 />
    <glyph glyph-name="lslash" unicode="&#xd4;" 
 />
    <glyph glyph-name="guilsinglright" unicode="&#xd5;" horiz-adv-x="737" 
d="M137 73q-55 47 -83.5 108t-30.5 125v5.5v5.5v5.5v5.5q2 59 24.5 115.5t60.5 100.5q44 47 101.5 72t117.5 30q7 0 14 0.5t14 0.5q9 0 18.5 -0.5t18.5 -1.5q25 -3 49.5 -8.5t46.5 -14.5l29 44h121l-57 -92q52 -49 82.5 -117t30.5 -142q0 -18 -2 -36.5t-6 -36.5
q-7 -30 -20.5 -60.5t-34.5 -59.5q-47 -65 -118.5 -98t-150.5 -33q-17 0 -34.5 1.5t-35.5 4.5t-35.5 7.5t-34.5 10.5l-35 -56h-121l71 114v0zM337 194l4 -2t5 -1q2 -1 4 -1.5t5 -1.5q2 0 4.5 -0.5t4.5 -0.5q6 0 12.5 1t12.5 3q20 6 39 20t32 33q7 11 12 23.5t8 25.5
q2 7 2.5 13.5t0.5 12.5q0 4 -0.5 8.5t-0.5 9.5q-2 13 -7.5 25.5t-14.5 23.5l-123 -192v0zM252 252l121 192q-2 -1 -4.5 -1h-4.5q-19 -1 -37 -5t-32 -9q-16 -10 -27.5 -22t-22.5 -28q-7 -10 -11.5 -22t-5.5 -25q-1 -2 -1 -4.5v-5.5q0 -7 1 -15t4 -16q3 -10 8 -20.5t12 -19.5
v1z" />
    <glyph glyph-name="Odieresis" unicode="&#xd6;" 
 />
    <glyph glyph-name="multiply" unicode="&#xd7;" 
 />
    <glyph glyph-name="plusminus" unicode="&#xd8;" 
 />
    <glyph glyph-name="Thorn" unicode="&#xd9;" horiz-adv-x="458" 
 />
    <glyph glyph-name="Eth" unicode="&#xda;" 
 />
    <glyph glyph-name="eth" unicode="&#xdb;" horiz-adv-x="458" 
 />
    <glyph glyph-name="Udieresis" unicode="&#xdc;" 
 />
    <glyph glyph-name="Yacute" unicode="&#xdd;" 
 />
    <glyph glyph-name="glyph236" unicode="&#xde;" 
 />
    <glyph glyph-name="germandbls" unicode="&#xdf;" 
 />
    <glyph glyph-name="agrave" unicode="&#xe0;" horiz-adv-x="410" 
d="M-53 602q1 32 21 51.5t43 24.5q4 0 7.5 0.5t6.5 0.5q4 0 8.5 -0.5t8.5 -1.5q23 -6 42 -25t19 -51q0 -40 -24.5 -60t-53.5 -20q-28 0 -52.5 20t-24.5 60zM131 602q0 37 23.5 57t55.5 20q33 0 60 -20t27 -58t-24.5 -58t-54.5 -22h-2.5h-2.5q-31 0 -56.5 20t-25.5 60v1z" />
    <glyph glyph-name="aacute" unicode="&#xe1;" horiz-adv-x="458" 
 />
    <glyph glyph-name="acircumflex" unicode="&#xe2;" 
 />
    <glyph glyph-name="atilde" unicode="&#xe3;" 
 />
    <glyph glyph-name="adieresis" unicode="&#xe4;" 
 />
    <glyph glyph-name="aring" unicode="&#xe5;" 
 />
    <glyph glyph-name="Otilde" unicode="&#xe6;" 
 />
    <glyph glyph-name="ccedilla" unicode="&#xe7;" 
 />
    <glyph glyph-name="egrave" unicode="&#xe8;" 
 />
    <glyph glyph-name="eacute" unicode="&#xe9;" horiz-adv-x="458" 
 />
    <glyph glyph-name="ecircumflex" unicode="&#xea;" horiz-adv-x="458" 
 />
    <glyph glyph-name="edieresis" unicode="&#xeb;" horiz-adv-x="458" 
 />
    <glyph glyph-name="igrave" unicode="&#xec;" 
 />
    <glyph glyph-name="iacute" unicode="&#xed;" 
 />
    <glyph glyph-name="icircumflex" unicode="&#xee;" 
 />
    <glyph glyph-name="idieresis" unicode="&#xef;" 
 />
    <glyph glyph-name="glyph233" unicode="&#xf0;" 
 />
    <glyph glyph-name="ntilde" unicode="&#xf1;" horiz-adv-x="458" 
 />
    <glyph glyph-name="ograve" unicode="&#xf2;" horiz-adv-x="458" 
 />
    <glyph glyph-name="oacute" unicode="&#xf3;" horiz-adv-x="458" 
 />
    <glyph glyph-name="ocircumflex" unicode="&#xf4;" horiz-adv-x="350" 
d="M37 496l-14 49l222 107l29 -107l-237 -49v0z" />
    <glyph glyph-name="otilde" unicode="&#xf5;" horiz-adv-x="458" 
 />
    <glyph glyph-name="odieresis" unicode="&#xf6;" horiz-adv-x="458" 
 />
    <glyph glyph-name="Aacute" unicode="&#xf7;" 
 />
    <glyph glyph-name="OE" unicode="&#xf8;" 
 />
    <glyph glyph-name="ugrave" unicode="&#xf9;" horiz-adv-x="350" 
d="M101 16h64l-14 -36q1 0 2 0.5t3 0.5q1 0 2 0.5t2 0.5q31 0 51.5 -26.5t21.5 -57.5v-1.5v-1.5v-6t-1 -6q-4 -29 -30 -53t-79 -24q-10 0 -20.5 1t-22.5 3v71q2 0 4.5 -0.5t5.5 -1.5q4 0 8 -0.5t8 -1.5q5 0 9.5 -0.5t8.5 -0.5q14 0 24 4t10 15q0 13 -5.5 20t-13.5 7
q-3 0 -7 -1t-8 -3l-7 -3.5t-5 -3.5q-1 0 -2 -0.5t-2 -1.5l-35 22l28 85v0z" />
    <glyph glyph-name="uacute" unicode="&#xfa;" horiz-adv-x="458" 
 />
    <glyph glyph-name="ucircumflex" unicode="&#xfb;" horiz-adv-x="458" 
 />
    <glyph glyph-name="udieresis" unicode="&#xfc;" horiz-adv-x="458" 
 />
    <glyph glyph-name="yacute" unicode="&#xfd;" 
 />
    <glyph glyph-name="glyph237" unicode="&#xfe;" 
 />
    <glyph glyph-name="Egrave" unicode="&#xff;" 
 />
    <glyph glyph-name="Abreve" unicode="&#x102;" 
 />
    <glyph glyph-name="abreve" unicode="&#x103;" 
 />
    <glyph glyph-name="Aogonek" unicode="&#x104;" 
 />
    <glyph glyph-name="aogonek" unicode="&#x105;" 
 />
    <glyph glyph-name="Cacute" unicode="&#x106;" 
 />
    <glyph glyph-name="cacute" unicode="&#x107;" 
 />
    <glyph glyph-name="Ccaron" unicode="&#x10c;" 
 />
    <glyph glyph-name="ccaron" unicode="&#x10d;" 
 />
    <glyph glyph-name="Dcaron" unicode="&#x10e;" 
 />
    <glyph glyph-name="dcaron" unicode="&#x10f;" 
 />
    <glyph glyph-name="Dcroat" unicode="&#x110;" 
 />
    <glyph glyph-name="dcroat" unicode="&#x111;" 
 />
    <glyph glyph-name="Eogonek" unicode="&#x118;" 
 />
    <glyph glyph-name="eogonek" unicode="&#x119;" 
 />
    <glyph glyph-name="Ecaron" unicode="&#x11a;" 
 />
    <glyph glyph-name="ecaron" unicode="&#x11b;" 
 />
    <glyph glyph-name="Gbreve" unicode="&#x11e;" 
 />
    <glyph glyph-name="gbreve" unicode="&#x11f;" 
 />
    <glyph glyph-name="Idotaccent" unicode="&#x130;" 
 />
    <glyph glyph-name="thorn" unicode="&#x131;" 
 />
    <glyph glyph-name="Lacute" unicode="&#x139;" 
 />
    <glyph glyph-name="lacute" unicode="&#x13a;" 
 />
    <glyph glyph-name="Lcaron" unicode="&#x13d;" 
 />
    <glyph glyph-name="lcaron" unicode="&#x13e;" 
 />
    <glyph glyph-name="Ldot" unicode="&#x13f;" 
 />
    <glyph glyph-name="ldot" unicode="&#x140;" 
 />
    <glyph glyph-name="glyph225" unicode="&#x141;" 
 />
    <glyph glyph-name="glyph226" unicode="&#x142;" 
 />
    <glyph glyph-name="Nacute" unicode="&#x143;" 
 />
    <glyph glyph-name="nacute" unicode="&#x144;" 
 />
    <glyph glyph-name="Ncaron" unicode="&#x147;" 
 />
    <glyph glyph-name="ncaron" unicode="&#x148;" 
 />
    <glyph glyph-name="Ohungarumlaut" unicode="&#x150;" 
 />
    <glyph glyph-name="ohungarumlaut" unicode="&#x151;" 
 />
    <glyph glyph-name="fi" unicode="&#x152;" 
 />
    <glyph glyph-name="fl" unicode="&#x153;" horiz-adv-x="819" 
d="M393 423q29 20 67.5 31.5t79.5 11.5q9 0 17.5 -0.5t17.5 -1.5q64 -8 121.5 -48.5t83.5 -121.5l-229 -129l-57 94l92 50q-2 1 -4.5 2t-4.5 3q-11 6 -22 9t-20 3q-28 0 -48 -24.5t-24 -54.5q-1 -3 -1 -6v-6t0.5 -5.5t1.5 -4.5q0 -3 0.5 -5.5t0.5 -5.5q5 -36 31.5 -55.5
t59.5 -19.5q9 0 18.5 1.5t19.5 4.5q22 7 42.5 21t34.5 34l102 -106q-35 -45 -97 -74.5t-130 -31.5h-2.5h-3.5q-11 0 -22 1t-23 3q-30 5 -60.5 17.5t-56.5 33.5q-26 -24 -63.5 -37t-77.5 -17q-6 0 -12.5 -0.5t-13.5 -0.5q-64 0 -117.5 26.5t-65.5 78.5q0 3 -1 6t-1 7
q-1 0 -1 0.5v1.5q-1 4 -1.5 8t-0.5 7q0 44 27 77.5t60 48.5q6 3 12.5 5.5t12.5 3.5l137 51q-6 4 -15.5 7t-18.5 4h-5.5h-5.5q-13 0 -27.5 -3t-29.5 -8q-8 -2 -15.5 -5t-14.5 -5q-3 -2 -6 -3l-6 -2l-100 107q35 27 83 44t99 20q6 1 11.5 1h11.5q10 0 20.5 -0.5t21.5 -2.5
q32 -4 62.5 -14t55.5 -27v1zM307 215l-78 -36q-6 -2 -10.5 -6.5t-6.5 -9.5q-1 -2 -1.5 -4.5t-0.5 -4.5v-1.5v-1.5q1 -9 9.5 -16.5t22.5 -7.5q4 0 10.5 2t13.5 5q2 0 3.5 1t2.5 1q17 8 27 24.5t10 35.5q0 2 -0.5 4.5t-0.5 4.5t-0.5 4.5t-0.5 4.5v1z" />
    <glyph glyph-name="Racute" unicode="&#x154;" 
 />
    <glyph glyph-name="racute" unicode="&#x155;" 
 />
    <glyph glyph-name="Rcaron" unicode="&#x158;" 
 />
    <glyph glyph-name="rcaron" unicode="&#x159;" 
 />
    <glyph glyph-name="Sacute" unicode="&#x15a;" 
 />
    <glyph glyph-name="sacute" unicode="&#x15b;" 
 />
    <glyph glyph-name="Scedilla" unicode="&#x15e;" 
 />
    <glyph glyph-name="scedilla" unicode="&#x15f;" 
 />
    <glyph glyph-name="glyph227" unicode="&#x160;" horiz-adv-x="329" 
d="M-2 503q1 68 49.5 104.5t107.5 36.5t108.5 -35.5t49.5 -99.5q0 -74 -47.5 -112.5t-104.5 -40.5h-3.5h-2.5h-1.5h-1.5q-57 1 -104.5 38t-48.5 108zM119 503q0 -23 10 -33.5t26 -10.5q3 0 5.5 0.5t5.5 2.5q9 4 16.5 14t7.5 26q0 18 -10 27t-22 10h-1.5h-1.5q-13 0 -24.5 -9
t-11.5 -28v1z" />
    <glyph glyph-name="glyph228" unicode="&#x161;" 
 />
    <glyph glyph-name="uni0162" unicode="&#x162;" 
 />
    <glyph glyph-name="uni0163" unicode="&#x163;" 
 />
    <glyph glyph-name="Tcaron" unicode="&#x164;" 
 />
    <glyph glyph-name="tcaron" unicode="&#x165;" 
 />
    <glyph glyph-name="Uring" unicode="&#x16e;" 
 />
    <glyph glyph-name="uring" unicode="&#x16f;" 
 />
    <glyph glyph-name="Uhungarumlaut" unicode="&#x170;" 
 />
    <glyph glyph-name="uhungarumlaut" unicode="&#x171;" 
 />
    <glyph glyph-name="Iacute" unicode="&#x178;" 
 />
    <glyph glyph-name="Zacute" unicode="&#x179;" 
 />
    <glyph glyph-name="zacute" unicode="&#x17a;" 
 />
    <glyph glyph-name="Zdotaccent" unicode="&#x17b;" 
 />
    <glyph glyph-name="zdotaccent" unicode="&#x17c;" 
 />
    <glyph glyph-name="Zcaron" unicode="&#x17d;" 
 />
    <glyph glyph-name="zcaron" unicode="&#x17e;" 
 />
    <glyph glyph-name="quotedblright" unicode="&#x192;" 
 />
    <glyph glyph-name="uni02BA" unicode="&#x2ba;" 
 />
    <glyph glyph-name="arrowright" unicode="&#x2c6;" 
 />
    <glyph glyph-name="glyph224" unicode="&#x2c7;" 
 />
    <glyph glyph-name="house" unicode="&#x2c9;" 
 />
    <glyph glyph-name="endash" unicode="&#x2d8;" 
 />
    <glyph glyph-name="sfthyphen" unicode="&#x2d9;" 
 />
    <glyph glyph-name="filledbox" unicode="&#x2da;" 
 />
    <glyph glyph-name="glyph223" unicode="&#x2db;" 
 />
    <glyph glyph-name="onehalf" unicode="&#x2dc;" 
 />
    <glyph glyph-name="Gamma" unicode="&#x393;" 
 />
    <glyph glyph-name="Theta" unicode="&#x398;" 
 />
    <glyph glyph-name="exclamdown" unicode="&#x3a3;" 
 />
    <glyph glyph-name="Phi" unicode="&#x3a6;" 
 />
    <glyph glyph-name="Atilde" unicode="&#x3a9;" 
 />
    <glyph glyph-name="alpha" unicode="&#x3b1;" 
 />
    <glyph glyph-name="delta" unicode="&#x3b4;" 
 />
    <glyph glyph-name="epsilon" unicode="&#x3b5;" 
 />
    <glyph glyph-name="guillemotleft" unicode="&#x3c0;" 
 />
    <glyph glyph-name="sigma" unicode="&#x3c3;" 
 />
    <glyph glyph-name="tau" unicode="&#x3c4;" 
 />
    <glyph glyph-name="phi" unicode="&#x3c6;" 
 />
    <glyph glyph-name="glyph259" unicode="&#x2013;" 
 />
    <glyph glyph-name="periodcentered" unicode="&#x2014;" horiz-adv-x="458" 
 />
    <glyph glyph-name="underscoredbl" unicode="&#x2017;" 
 />
    <glyph glyph-name="Acircumflex" unicode="&#x2018;" 
 />
    <glyph glyph-name="Ecircumflex" unicode="&#x2019;" 
 />
    <glyph glyph-name="Ugrave" unicode="&#x201a;" 
 />
    <glyph glyph-name="quotedblbase" unicode="&#x201c;" horiz-adv-x="458" 
 />
    <glyph glyph-name="perthousand" unicode="&#x201d;" horiz-adv-x="458" 
 />
    <glyph glyph-name="dotlessi" unicode="&#x201e;" 
 />
    <glyph glyph-name="dagger" unicode="&#x2020;" 
 />
    <glyph glyph-name="Uacute" unicode="&#x2021;" 
 />
    <glyph glyph-name="glyph262" unicode="&#x2022;" 
 />
    <glyph glyph-name="fraction" unicode="&#x2026;" 
 />
    <glyph glyph-name="circumflex" unicode="&#x2030;" 
 />
    <glyph glyph-name="Igrave" unicode="&#x2039;" horiz-adv-x="492" 
d="M149 231l109 -116h-144l-107 116l107 114h144l-109 -114v0zM350 231l108 -116h-144l-108 116l108 114h144l-108 -114v0z" />
    <glyph glyph-name="Oacute" unicode="&#x203a;" horiz-adv-x="458" 
 />
    <glyph glyph-name="exclamdbl" unicode="&#x203c;" 
 />
    <glyph glyph-name="uni207F" unicode="&#x207f;" 
 />
    <glyph glyph-name="franc" unicode="&#x20a3;" 
 />
    <glyph glyph-name="peseta" unicode="&#x20a7;" 
 />
    <glyph glyph-name="trademark" unicode="&#x2122;" horiz-adv-x="311" 
d="M-4 394v251h121v-251h-121v0zM167 394v251h123v-251h-123v0z" />
    <glyph glyph-name="arrowleft" unicode="&#x2190;" 
 />
    <glyph glyph-name="arrowup" unicode="&#x2191;" 
 />
    <glyph glyph-name="glyph257" unicode="&#x2192;" horiz-adv-x="350" 
d="M194 474v-108q-3 -1 -6 -1.5t-6 -0.5q-4 0 -7 -0.5t-6 -0.5q-67 0 -113.5 33.5t-46.5 112.5q0 71 46.5 107.5t104.5 36.5h4h4q58 -3 106.5 -45.5t48.5 -127.5v-107h-115v137q0 18 -13 27t-30 9q-16 0 -29 -9t-13 -28q0 -22 13 -30.5t29 -8.5h6h6q5 1 9.5 1.5t7.5 1.5v1z
" />
    <glyph glyph-name="arrowdown" unicode="&#x2193;" 
 />
    <glyph glyph-name="arrowboth" unicode="&#x2194;" 
 />
    <glyph glyph-name="arrowupdn" unicode="&#x2195;" 
 />
    <glyph glyph-name="arrowupdnbse" unicode="&#x21a8;" 
 />
    <glyph glyph-name="questiondown" unicode="&#x2202;" 
 />
    <glyph glyph-name="quoteright" unicode="&#x2206;" 
 />
    <glyph glyph-name="florin" unicode="&#x220f;" 
 />
    <glyph glyph-name="minus" unicode="&#x2212;" 
 />
    <glyph glyph-name="Icircumflex" unicode="&#x2215;" 
 />
    <glyph glyph-name="Ucircumflex" unicode="&#x2219;" 
 />
    <glyph glyph-name="quotedblleft" unicode="&#x221a;" 
 />
    <glyph glyph-name="yen" unicode="&#x221e;" 
 />
    <glyph glyph-name="orthogonal" unicode="&#x221f;" 
 />
    <glyph glyph-name="intersection" unicode="&#x2229;" 
 />
    <glyph glyph-name="guillemotright" unicode="&#x222b;" 
 />
    <glyph glyph-name="quoteleft" unicode="&#x2248;" 
 />
    <glyph glyph-name="AE" unicode="&#x2260;" 
 />
    <glyph glyph-name="equivalence" unicode="&#x2261;" 
 />
    <glyph glyph-name="ordfeminine" unicode="&#x2264;" 
 />
    <glyph glyph-name="ordmasculine" unicode="&#x2265;" 
 />
    <glyph glyph-name="glyph258" unicode="&#x2302;" 
 />
    <glyph glyph-name="revlogicalnot" unicode="&#x2310;" 
 />
    <glyph glyph-name="integraltp" unicode="&#x2320;" 
 />
    <glyph glyph-name="integralbt" unicode="&#x2321;" 
 />
    <glyph glyph-name="SF100000" unicode="&#x2500;" 
 />
    <glyph glyph-name="SF110000" unicode="&#x2502;" 
 />
    <glyph glyph-name="SF010000" unicode="&#x250c;" 
 />
    <glyph glyph-name="SF030000" unicode="&#x2510;" 
 />
    <glyph glyph-name="SF020000" unicode="&#x2514;" 
 />
    <glyph glyph-name="SF040000" unicode="&#x2518;" 
 />
    <glyph glyph-name="SF080000" unicode="&#x251c;" 
 />
    <glyph glyph-name="SF090000" unicode="&#x2524;" 
 />
    <glyph glyph-name="SF060000" unicode="&#x252c;" 
 />
    <glyph glyph-name="SF070000" unicode="&#x2534;" 
 />
    <glyph glyph-name="SF050000" unicode="&#x253c;" 
 />
    <glyph glyph-name="SF430000" unicode="&#x2550;" 
 />
    <glyph glyph-name="SF240000" unicode="&#x2551;" 
 />
    <glyph glyph-name="SF510000" unicode="&#x2552;" 
 />
    <glyph glyph-name="SF520000" unicode="&#x2553;" 
 />
    <glyph glyph-name="SF390000" unicode="&#x2554;" 
 />
    <glyph glyph-name="SF220000" unicode="&#x2555;" 
 />
    <glyph glyph-name="SF210000" unicode="&#x2556;" 
 />
    <glyph glyph-name="SF250000" unicode="&#x2557;" 
 />
    <glyph glyph-name="SF500000" unicode="&#x2558;" 
 />
    <glyph glyph-name="SF490000" unicode="&#x2559;" 
 />
    <glyph glyph-name="SF380000" unicode="&#x255a;" 
 />
    <glyph glyph-name="SF280000" unicode="&#x255b;" 
 />
    <glyph glyph-name="SF270000" unicode="&#x255c;" 
 />
    <glyph glyph-name="SF260000" unicode="&#x255d;" 
 />
    <glyph glyph-name="SF360000" unicode="&#x255e;" 
 />
    <glyph glyph-name="SF370000" unicode="&#x255f;" 
 />
    <glyph glyph-name="SF420000" unicode="&#x2560;" 
 />
    <glyph glyph-name="SF190000" unicode="&#x2561;" 
 />
    <glyph glyph-name="SF200000" unicode="&#x2562;" 
 />
    <glyph glyph-name="SF230000" unicode="&#x2563;" 
 />
    <glyph glyph-name="SF470000" unicode="&#x2564;" 
 />
    <glyph glyph-name="SF480000" unicode="&#x2565;" 
 />
    <glyph glyph-name="SF410000" unicode="&#x2566;" 
 />
    <glyph glyph-name="SF450000" unicode="&#x2567;" 
 />
    <glyph glyph-name="SF460000" unicode="&#x2568;" 
 />
    <glyph glyph-name="SF400000" unicode="&#x2569;" 
 />
    <glyph glyph-name="SF540000" unicode="&#x256a;" 
 />
    <glyph glyph-name="SF530000" unicode="&#x256b;" 
 />
    <glyph glyph-name="SF440000" unicode="&#x256c;" 
 />
    <glyph glyph-name="upblock" unicode="&#x2580;" 
 />
    <glyph glyph-name="dnblock" unicode="&#x2584;" 
 />
    <glyph glyph-name="block" unicode="&#x2588;" 
 />
    <glyph glyph-name="lfblock" unicode="&#x258c;" 
 />
    <glyph glyph-name="rtblock" unicode="&#x2590;" 
 />
    <glyph glyph-name="ltshade" unicode="&#x2591;" 
 />
    <glyph glyph-name="shade" unicode="&#x2592;" 
 />
    <glyph glyph-name="dkshade" unicode="&#x2593;" 
 />
    <glyph glyph-name="glyph261" unicode="&#x25a0;" horiz-adv-x="458" 
 />
    <glyph glyph-name="filledrect" unicode="&#x25ac;" 
 />
    <glyph glyph-name="triagup" unicode="&#x25b2;" 
 />
    <glyph glyph-name="triagrt" unicode="&#x25ba;" 
 />
    <glyph glyph-name="triagdn" unicode="&#x25bc;" 
 />
    <glyph glyph-name="triaglf" unicode="&#x25c4;" 
 />
    <glyph glyph-name="Edieresis" unicode="&#x25ca;" 
 />
    <glyph glyph-name="circle" unicode="&#x25cb;" 
 />
    <glyph glyph-name="invbullet" unicode="&#x25d8;" 
 />
    <glyph glyph-name="invcircle" unicode="&#x25d9;" 
 />
    <glyph glyph-name="smileface" unicode="&#x263a;" 
 />
    <glyph glyph-name="invsmileface" unicode="&#x263b;" 
 />
    <glyph glyph-name="sun" unicode="&#x263c;" 
 />
    <glyph glyph-name="female" unicode="&#x2640;" 
 />
    <glyph glyph-name="male" unicode="&#x2642;" 
 />
    <glyph glyph-name="spade" unicode="&#x2660;" 
 />
    <glyph glyph-name="club" unicode="&#x2663;" 
 />
    <glyph glyph-name="heart" unicode="&#x2665;" 
 />
    <glyph glyph-name="diamond" unicode="&#x2666;" 
 />
    <glyph glyph-name="musicalnote" unicode="&#x266a;" 
 />
    <glyph glyph-name="musicalnotedbl" unicode="&#x266b;" 
 />
    <glyph glyph-name="Scaron" unicode="&#xf000;" 
 />
    <glyph glyph-name="Ocircumflex" unicode="&#xf001;" 
 />
    <glyph glyph-name="Ograve" unicode="&#xf002;" 
 />
    <glyph glyph-name="degree" horiz-adv-x="458" 
 />
    <glyph glyph-name="bullet" 
 />
    <glyph glyph-name="daggerdbl" 
 />
    </font>
</defs>
</svg>
